<svg width="169" height="25" viewBox="0 0 169 25" fill="none" xmlns="http://www.w3.org/2000/svg">
<g clip-path="url(#clip0_1_2)">
<path d="M0 22.2222C0 9.94923 9.94923 0 22.2222 0H166.222C167.756 0 169 1.24365 169 2.77778V2.77778C169 15.0508 159.051 25 146.778 25H2.77777C1.24365 25 0 23.7563 0 22.2222V22.2222Z" fill="url(#paint0_linear_1_2)"/>
<path d="M65.864 12.856H65.144V15H63.568V9.4H65.144V11.576H65.904L67.24 9.4H68.904L67.152 12.104L68.92 15H67.136L65.864 12.856ZM74.8809 9.4L72.5609 13.728C72.3156 14.192 72.0143 14.544 71.6569 14.784C71.3049 15.024 70.9183 15.144 70.4969 15.144C70.1876 15.144 69.8569 15.0747 69.5049 14.936L69.8809 13.768C70.0996 13.832 70.2863 13.864 70.4409 13.864C70.5956 13.864 70.7316 13.8293 70.8489 13.76C70.9716 13.6907 71.0836 13.5813 71.1849 13.432L69.0089 9.4H70.6809L71.9849 12.104L73.3369 9.4H74.8809ZM77.9491 9.4C78.4557 9.4 78.8957 9.48533 79.2691 9.656C79.6424 9.82133 79.9304 10.0613 80.1331 10.376C80.3357 10.6853 80.4371 11.0507 80.4371 11.472C80.4371 11.8933 80.3357 12.2587 80.1331 12.568C79.9304 12.8773 79.6424 13.1173 79.2691 13.288C78.8957 13.4533 78.4557 13.536 77.9491 13.536H76.9731V15H75.3891V9.4H77.9491ZM77.8531 12.288C78.1784 12.288 78.4237 12.2187 78.5891 12.08C78.7544 11.936 78.8371 11.7333 78.8371 11.472C78.8371 11.2107 78.7544 11.008 78.5891 10.864C78.4237 10.72 78.1784 10.648 77.8531 10.648H76.9731V12.288H77.8531ZM84.7374 13.912H82.3694L81.9294 15H80.3134L82.7854 9.4H84.3454L86.8254 15H85.1774L84.7374 13.912ZM84.2734 12.744L83.5534 10.952L82.8334 12.744H84.2734ZM91.6979 10.656H89.9859V15H88.4259V10.656H86.7059V9.4H91.6979V10.656ZM95.102 15.112C94.51 15.112 93.9767 14.9867 93.502 14.736C93.0327 14.4853 92.662 14.1387 92.39 13.696C92.1233 13.2533 91.99 12.7547 91.99 12.2C91.99 11.6453 92.1233 11.1467 92.39 10.704C92.662 10.2613 93.0327 9.91467 93.502 9.664C93.9767 9.41333 94.51 9.288 95.102 9.288C95.694 9.288 96.2247 9.41333 96.694 9.664C97.1687 9.91467 97.5393 10.2613 97.806 10.704C98.078 11.1467 98.214 11.6453 98.214 12.2C98.214 12.7547 98.078 13.2533 97.806 13.696C97.5393 14.1387 97.1687 14.4853 96.694 14.736C96.2247 14.9867 95.694 15.112 95.102 15.112ZM95.102 13.8C95.3847 13.8 95.6407 13.7333 95.87 13.6C96.0993 13.4667 96.2807 13.28 96.414 13.04C96.5473 12.7947 96.614 12.5147 96.614 12.2C96.614 11.8853 96.5473 11.608 96.414 11.368C96.2807 11.1227 96.0993 10.9333 95.87 10.8C95.6407 10.6667 95.3847 10.6 95.102 10.6C94.8193 10.6 94.5633 10.6667 94.334 10.8C94.1047 10.9333 93.9233 11.1227 93.79 11.368C93.6567 11.608 93.59 11.8853 93.59 12.2C93.59 12.5147 93.6567 12.7947 93.79 13.04C93.9233 13.28 94.1047 13.4667 94.334 13.6C94.5633 13.7333 94.8193 13.8 95.102 13.8ZM101.621 9.4C102.128 9.4 102.568 9.48533 102.941 9.656C103.314 9.82133 103.602 10.0613 103.805 10.376C104.008 10.6853 104.109 11.0507 104.109 11.472C104.109 11.8933 104.008 12.2587 103.805 12.568C103.602 12.8773 103.314 13.1173 102.941 13.288C102.568 13.4533 102.128 13.536 101.621 13.536H100.645V15H99.0609V9.4H101.621ZM101.525 12.288C101.85 12.288 102.096 12.2187 102.261 12.08C102.426 11.936 102.509 11.7333 102.509 11.472C102.509 11.2107 102.426 11.008 102.261 10.864C102.096 10.72 101.85 10.648 101.525 10.648H100.645V12.288H101.525Z" fill="white"/>
</g>
<defs>
<linearGradient id="paint0_linear_1_2" x1="32.3003" y1="-15.3226" x2="122.353" y2="101.732" gradientUnits="userSpaceOnUse">
<stop stop-color="#551D69"/>
<stop offset="0.947917" stop-color="#BF40EC"/>
</linearGradient>
<clipPath id="clip0_1_2">
<rect width="169" height="25" fill="white"/>
</clipPath>
</defs>
</svg>
