<svg width="169" height="25" viewBox="0 0 169 25" fill="none" xmlns="http://www.w3.org/2000/svg">
<g clip-path="url(#clip0_1_2)">
<path d="M0 22.2222C0 9.94923 9.94923 0 22.2222 0H166.222C167.756 0 169 1.24365 169 2.77778V2.77778C169 15.0508 159.051 25 146.778 25H2.77777C1.24365 25 0 23.7563 0 22.2222V22.2222Z" fill="url(#paint0_linear_1_2)"/>
<path d="M49.064 12.088C49.3733 12.2053 49.616 12.3813 49.792 12.616C49.968 12.8507 50.056 13.12 50.056 13.424C50.056 13.7707 49.9387 14.072 49.704 14.328C49.4693 14.584 49.152 14.7813 48.752 14.92C48.352 15.0533 47.912 15.12 47.432 15.12C47.0533 15.12 46.6667 15.0747 46.272 14.984C45.8827 14.8933 45.5093 14.7573 45.152 14.576L45.624 13.472C45.8747 13.6 46.1413 13.6987 46.424 13.768C46.712 13.832 46.9893 13.864 47.256 13.864C47.608 13.864 47.896 13.808 48.12 13.696C48.344 13.5787 48.456 13.416 48.456 13.208C48.456 13.0427 48.3867 12.92 48.248 12.84C48.1093 12.76 47.9227 12.72 47.688 12.72H46.256V11.56H47.56C47.7733 11.56 47.9387 11.5173 48.056 11.432C48.1733 11.3467 48.232 11.232 48.232 11.088C48.232 10.9067 48.1413 10.768 47.96 10.672C47.7787 10.5707 47.544 10.52 47.256 10.52C47.0213 10.52 46.7733 10.5547 46.512 10.624C46.2507 10.688 46.0027 10.7813 45.768 10.904L45.304 9.704C45.9013 9.416 46.5573 9.272 47.272 9.272C47.7307 9.272 48.1547 9.33867 48.544 9.472C48.9387 9.6 49.2507 9.78667 49.48 10.032C49.7147 10.2773 49.832 10.568 49.832 10.904C49.832 11.1653 49.7627 11.4 49.624 11.608C49.4907 11.8107 49.304 11.9707 49.064 12.088ZM54.7765 13.912H52.4085L51.9685 15H50.3525L52.8245 9.4H54.3845L56.8645 15H55.2165L54.7765 13.912ZM54.3125 12.744L53.5925 10.952L52.8725 12.744H54.3125ZM62.5543 15L62.5463 12.032L61.1063 14.448H60.4023L58.9622 12.096V15H57.5063V9.4H58.8103L60.7783 12.632L62.6983 9.4H64.0023L64.0183 15H62.5543ZM69.7054 13.776V15H65.2094V9.4H69.6014V10.624H66.7774V11.568H69.2654V12.752H66.7774V13.776H69.7054ZM73.328 15.112C72.7413 15.112 72.2133 14.9893 71.744 14.744C71.28 14.4933 70.9147 14.1467 70.648 13.704C70.3813 13.2613 70.248 12.76 70.248 12.2C70.248 11.64 70.3813 11.1387 70.648 10.696C70.9147 10.2533 71.28 9.90933 71.744 9.664C72.2133 9.41333 72.7413 9.288 73.328 9.288C73.84 9.288 74.3013 9.37867 74.712 9.56C75.1227 9.74133 75.464 10.0027 75.736 10.344L74.728 11.256C74.3653 10.8187 73.9253 10.6 73.408 10.6C73.104 10.6 72.832 10.6667 72.592 10.8C72.3573 10.9333 72.1733 11.1227 72.04 11.368C71.912 11.608 71.848 11.8853 71.848 12.2C71.848 12.5147 71.912 12.7947 72.04 13.04C72.1733 13.28 72.3573 13.4667 72.592 13.6C72.832 13.7333 73.104 13.8 73.408 13.8C73.9253 13.8 74.3653 13.5813 74.728 13.144L75.736 14.056C75.464 14.3973 75.1227 14.6587 74.712 14.84C74.3013 15.0213 73.84 15.112 73.328 15.112ZM80.9167 10.656H79.2047V15H77.6447V10.656H75.9247V9.4H80.9167V10.656ZM81.6469 9.4H83.2069V12.688L85.5189 9.4H87.0069V15H85.4469V11.72L83.1429 15H81.6469V9.4ZM92.7214 10.656H91.0094V15H89.4494V10.656H87.7294V9.4H92.7214V10.656ZM97.9476 13.776V15H93.4516V9.4H97.8436V10.624H95.0196V11.568H97.5076V12.752H95.0196V13.776H97.9476ZM104.074 9.4V15H102.514V10.656H100.906L100.874 11.568C100.847 12.368 100.781 13.0187 100.674 13.52C100.573 14.0213 100.397 14.4107 100.146 14.688C99.8953 14.96 99.5407 15.096 99.082 15.096C98.8687 15.096 98.6287 15.064 98.362 15L98.45 13.704C98.5193 13.72 98.5913 13.728 98.666 13.728C98.874 13.728 99.034 13.6453 99.146 13.48C99.258 13.3147 99.338 13.0853 99.386 12.792C99.434 12.4933 99.466 12.1067 99.482 11.632L99.562 9.4H104.074ZM108.128 11.184C108.816 11.184 109.347 11.3387 109.72 11.648C110.093 11.952 110.28 12.4053 110.28 13.008C110.28 13.6533 110.072 14.1467 109.656 14.488C109.24 14.8293 108.661 15 107.92 15H105.272V9.4H106.832V11.184H108.128ZM107.816 13.864C108.083 13.864 108.293 13.792 108.448 13.648C108.608 13.504 108.688 13.3013 108.688 13.04C108.688 12.5547 108.397 12.312 107.816 12.312H106.832V13.864H107.816ZM117.501 10.656H114.965V15H113.405V9.4H117.509L117.501 10.656ZM120.98 13.912H118.612L118.172 15H116.556L119.028 9.4H120.588L123.068 15H121.42L120.98 13.912ZM120.516 12.744L119.796 10.952L119.076 12.744H120.516Z" fill="white"/>
</g>
<defs>
<linearGradient id="paint0_linear_1_2" x1="32.3003" y1="-15.3226" x2="122.353" y2="101.732" gradientUnits="userSpaceOnUse">
<stop stop-color="#144412"/>
<stop offset="0.9986" stop-color="#3EC138"/>
</linearGradient>
<clipPath id="clip0_1_2">
<rect width="169" height="25" fill="white"/>
</clipPath>
</defs>
</svg>
