<svg width="169" height="25" viewBox="0 0 169 25" fill="none" xmlns="http://www.w3.org/2000/svg">
<g clip-path="url(#clip0_1_2)">
<path d="M0 22.2222C0 9.94923 9.94923 0 22.2222 0H166.222C167.756 0 169 1.24365 169 2.77778V2.77778C169 15.0508 159.051 25 146.778 25H2.77777C1.24365 25 0 23.7563 0 22.2222V22.2222Z" fill="url(#paint0_linear_1_2)"/>
<path d="M24.696 10.656H22.16V15H20.6V9.4H24.704L24.696 10.656ZM29.949 9.4V15H28.389V10.656H26.781L26.749 11.568C26.7223 12.368 26.6557 13.0187 26.549 13.52C26.4477 14.0213 26.2717 14.4107 26.021 14.688C25.7703 14.96 25.4157 15.096 24.957 15.096C24.7437 15.096 24.5037 15.064 24.237 15L24.325 13.704C24.3943 13.72 24.4663 13.728 24.541 13.728C24.749 13.728 24.909 13.6453 25.021 13.48C25.133 13.3147 25.213 13.0853 25.261 12.792C25.309 12.4933 25.341 12.1067 25.357 11.632L25.437 9.4H29.949ZM35.0109 13.912H32.6429L32.2029 15H30.5869L33.0589 9.4H34.6189L37.0989 15H35.4509L35.0109 13.912ZM34.5469 12.744L33.8269 10.952L33.1069 12.744H34.5469ZM41.8206 12.072C42.1513 12.1787 42.402 12.344 42.5726 12.568C42.7486 12.792 42.8366 13.0693 42.8366 13.4C42.8366 13.896 42.642 14.288 42.2526 14.576C41.8686 14.8587 41.322 15 40.6126 15H37.7406V9.4H40.4606C41.1326 9.4 41.6526 9.528 42.0206 9.784C42.394 10.0347 42.5806 10.392 42.5806 10.856C42.5806 11.128 42.514 11.368 42.3806 11.576C42.2526 11.784 42.066 11.9493 41.8206 12.072ZM39.3006 11.64H40.3086C40.7566 11.64 40.9806 11.456 40.9806 11.088C40.9806 10.72 40.7566 10.536 40.3086 10.536H39.3006V11.64ZM40.5486 13.864C41.0073 13.864 41.2366 13.6693 41.2366 13.28C41.2366 12.9013 41.0073 12.712 40.5486 12.712H39.3006V13.864H40.5486ZM49.0218 9.4V15H47.4378V12.816H45.2778V15H43.6938V9.4H45.2778V11.504H47.4378V9.4H49.0218ZM53.081 11.184C53.769 11.184 54.2997 11.3387 54.673 11.648C55.0463 11.952 55.233 12.4053 55.233 13.008C55.233 13.6533 55.025 14.1467 54.609 14.488C54.193 14.8293 53.6143 15 52.873 15H50.225V9.4H51.785V11.184H53.081ZM52.769 13.864C53.0357 13.864 53.2463 13.792 53.401 13.648C53.561 13.504 53.641 13.3013 53.641 13.04C53.641 12.5547 53.3503 12.312 52.769 12.312H51.785V13.864H52.769ZM55.849 9.4H57.409V15H55.849V9.4ZM58.6156 9.4H60.1756V12.688L62.4876 9.4H63.9756V15H62.4156V11.72L60.1116 15H58.6156V9.4ZM61.2876 9.064C60.7223 9.064 60.3063 8.95467 60.0396 8.736C59.7783 8.51733 59.6476 8.192 59.6476 7.76H60.7116C60.717 7.94667 60.765 8.08533 60.8556 8.176C60.9463 8.26667 61.0903 8.312 61.2876 8.312C61.485 8.312 61.6316 8.26667 61.7276 8.176C61.8236 8.08533 61.8743 7.94667 61.8796 7.76H62.9436C62.9436 8.192 62.8103 8.51733 62.5436 8.736C62.277 8.95467 61.8583 9.064 61.2876 9.064ZM71.3703 13.912H69.0023L68.5623 15H66.9463L69.4183 9.4H70.9783L73.4583 15H71.8103L71.3703 13.912ZM70.9062 12.744L70.1863 10.952L69.4663 12.744H70.9062ZM80.1785 13.744V16.128H78.7305V15H75.1465V16.128H73.6905V13.744H73.8905C74.2212 13.7387 74.4532 13.512 74.5865 13.064C74.7252 12.616 74.8105 11.9707 74.8425 11.128L74.9065 9.4H79.4185V13.744H80.1785ZM76.2265 11.264C76.2052 11.8613 76.1572 12.368 76.0825 12.784C76.0078 13.2 75.8932 13.52 75.7385 13.744H77.8585V10.656H76.2505L76.2265 11.264ZM85.9839 15L85.9759 12.032L84.5359 14.448H83.8319L82.3919 12.096V15H80.9359V9.4H82.2399L84.2079 12.632L86.1279 9.4H87.4319L87.4479 15H85.9839ZM88.6391 9.4H90.1991V12.688L92.5111 9.4H93.9991V15H92.4391V11.72L90.1351 15H88.6391V9.4ZM100.53 9.4V15H98.9456V12.816H96.7856V15H95.2016V9.4H96.7856V11.504H98.9456V9.4H100.53ZM101.733 9.4H103.293V12.688L105.605 9.4H107.093V15H105.533V11.72L103.229 15H101.733V9.4ZM111.023 15.112C110.437 15.112 109.909 14.9893 109.439 14.744C108.975 14.4933 108.61 14.1467 108.343 13.704C108.077 13.2613 107.943 12.76 107.943 12.2C107.943 11.64 108.077 11.1387 108.343 10.696C108.61 10.2533 108.975 9.90933 109.439 9.664C109.909 9.41333 110.437 9.288 111.023 9.288C111.535 9.288 111.997 9.37867 112.407 9.56C112.818 9.74133 113.159 10.0027 113.431 10.344L112.423 11.256C112.061 10.8187 111.621 10.6 111.103 10.6C110.799 10.6 110.527 10.6667 110.287 10.8C110.053 10.9333 109.869 11.1227 109.735 11.368C109.607 11.608 109.543 11.8853 109.543 12.2C109.543 12.5147 109.607 12.7947 109.735 13.04C109.869 13.28 110.053 13.4667 110.287 13.6C110.527 13.7333 110.799 13.8 111.103 13.8C111.621 13.8 112.061 13.5813 112.423 13.144L113.431 14.056C113.159 14.3973 112.818 14.6587 112.407 14.84C111.997 15.0213 111.535 15.112 111.023 15.112ZM118.612 10.656H116.9V15H115.34V10.656H113.62V9.4H118.612V10.656ZM121.902 9.4C122.409 9.4 122.849 9.48533 123.222 9.656C123.596 9.82133 123.884 10.0613 124.086 10.376C124.289 10.6853 124.39 11.0507 124.39 11.472C124.39 11.8933 124.289 12.2587 124.086 12.568C123.884 12.8773 123.596 13.1173 123.222 13.288C122.849 13.4533 122.409 13.536 121.902 13.536H120.926V15H119.342V9.4H121.902ZM121.806 12.288C122.132 12.288 122.377 12.2187 122.542 12.08C122.708 11.936 122.79 11.7333 122.79 11.472C122.79 11.2107 122.708 11.008 122.542 10.864C122.377 10.72 122.132 10.648 121.806 10.648H120.926V12.288H121.806ZM128.691 13.912H126.323L125.883 15H124.267L126.739 9.4H128.299L130.779 15H129.131L128.691 13.912ZM128.227 12.744L127.507 10.952L126.787 12.744H128.227ZM135.651 10.656H133.939V15H132.379V10.656H130.659V9.4H135.651V10.656ZM139.055 15.112C138.463 15.112 137.93 14.9867 137.455 14.736C136.986 14.4853 136.615 14.1387 136.343 13.696C136.076 13.2533 135.943 12.7547 135.943 12.2C135.943 11.6453 136.076 11.1467 136.343 10.704C136.615 10.2613 136.986 9.91467 137.455 9.664C137.93 9.41333 138.463 9.288 139.055 9.288C139.647 9.288 140.178 9.41333 140.647 9.664C141.122 9.91467 141.492 10.2613 141.759 10.704C142.031 11.1467 142.167 11.6453 142.167 12.2C142.167 12.7547 142.031 13.2533 141.759 13.696C141.492 14.1387 141.122 14.4853 140.647 14.736C140.178 14.9867 139.647 15.112 139.055 15.112ZM139.055 13.8C139.338 13.8 139.594 13.7333 139.823 13.6C140.052 13.4667 140.234 13.28 140.367 13.04C140.5 12.7947 140.567 12.5147 140.567 12.2C140.567 11.8853 140.5 11.608 140.367 11.368C140.234 11.1227 140.052 10.9333 139.823 10.8C139.594 10.6667 139.338 10.6 139.055 10.6C138.772 10.6 138.516 10.6667 138.287 10.8C138.058 10.9333 137.876 11.1227 137.743 11.368C137.61 11.608 137.543 11.8853 137.543 12.2C137.543 12.5147 137.61 12.7947 137.743 13.04C137.876 13.28 138.058 13.4667 138.287 13.6C138.516 13.7333 138.772 13.8 139.055 13.8ZM145.574 9.4C146.081 9.4 146.521 9.48533 146.894 9.656C147.267 9.82133 147.555 10.0613 147.758 10.376C147.961 10.6853 148.062 11.0507 148.062 11.472C148.062 11.8933 147.961 12.2587 147.758 12.568C147.555 12.8773 147.267 13.1173 146.894 13.288C146.521 13.4533 146.081 13.536 145.574 13.536H144.598V15H143.014V9.4H145.574ZM145.478 12.288C145.803 12.288 146.049 12.2187 146.214 12.08C146.379 11.936 146.462 11.7333 146.462 11.472C146.462 11.2107 146.379 11.008 146.214 10.864C146.049 10.72 145.803 10.648 145.478 10.648H144.598V12.288H145.478Z" fill="white"/>
</g>
<defs>
<linearGradient id="paint0_linear_1_2" x1="32.3003" y1="-15.3226" x2="122.353" y2="101.732" gradientUnits="userSpaceOnUse">
<stop stop-color="#023C00"/>
<stop offset="0.9986" stop-color="#058C00"/>
</linearGradient>
<clipPath id="clip0_1_2">
<rect width="169" height="25" fill="white"/>
</clipPath>
</defs>
</svg>
