<svg width="169" height="25" viewBox="0 0 169 25" fill="none" xmlns="http://www.w3.org/2000/svg">
<g clip-path="url(#clip0_1_2)">
<path d="M0 22.2222C0 9.94923 9.94923 0 22.2222 0H166.222C167.756 0 169 1.24365 169 2.77778V2.77778C169 15.0508 159.051 25 146.778 25H2.77777C1.24365 25 0 23.7563 0 22.2222V22.2222Z" fill="url(#paint0_linear_1_2)"/>
<path d="M67.992 9.392L68.992 10.912L69.984 9.392H71.824L69.984 12.072L71.984 15H70.12L68.992 13.344L67.872 15H66.048L68.04 12.144L66.176 9.392H67.992ZM76.9632 13.776V15H72.4672V9.4H76.8592V10.624H74.0352V11.568H76.5232V12.752H74.0352V13.776H76.9632ZM83.0896 9.4V15H81.5296V10.656H79.9216L79.8896 11.568C79.863 12.368 79.7963 13.0187 79.6896 13.52C79.5883 14.0213 79.4123 14.4107 79.1616 14.688C78.911 14.96 78.5563 15.096 78.0976 15.096C77.8843 15.096 77.6443 15.064 77.3776 15L77.4656 13.704C77.535 13.72 77.607 13.728 77.6816 13.728C77.8896 13.728 78.0496 13.6453 78.1616 13.48C78.2736 13.3147 78.3536 13.0853 78.4016 12.792C78.4496 12.4933 78.4816 12.1067 78.4976 11.632L78.5776 9.4H83.0896ZM89.5435 9.4V15H87.9755V10.656H85.8475V15H84.2875V9.4H89.5435ZM95.2366 13.776V15H90.7406V9.4H95.1326V10.624H92.3086V11.568H94.7966V12.752H92.3086V13.776H95.2366ZM98.6991 9.4C99.2057 9.4 99.6457 9.48533 100.019 9.656C100.392 9.82133 100.68 10.0613 100.883 10.376C101.086 10.6853 101.187 11.0507 101.187 11.472C101.187 11.8933 101.086 12.2587 100.883 12.568C100.68 12.8773 100.392 13.1173 100.019 13.288C99.6457 13.4533 99.2057 13.536 98.6991 13.536H97.7231V15H96.1391V9.4H98.6991ZM98.6031 12.288C98.9284 12.288 99.1737 12.2187 99.3391 12.08C99.5044 11.936 99.5871 11.7333 99.5871 11.472C99.5871 11.2107 99.5044 11.008 99.3391 10.864C99.1737 10.72 98.9284 10.648 98.6031 10.648H97.7231V12.288H98.6031Z" fill="white"/>
</g>
<defs>
<linearGradient id="paint0_linear_1_2" x1="32.3003" y1="-15.3226" x2="122.353" y2="101.732" gradientUnits="userSpaceOnUse">
<stop stop-color="#083955"/>
<stop offset="0.9986" stop-color="#18ABFF"/>
</linearGradient>
<clipPath id="clip0_1_2">
<rect width="169" height="25" fill="white"/>
</clipPath>
</defs>
</svg>
