<svg width="169" height="25" viewBox="0 0 169 25" fill="none" xmlns="http://www.w3.org/2000/svg">
<g clip-path="url(#clip0_1_2)">
<path d="M0 22.2222C0 9.94923 9.94923 0 22.2222 0H166.222C167.756 0 169 1.24365 169 2.77778V2.77778C169 15.0508 159.051 25 146.778 25H2.77777C1.24365 25 0 23.7563 0 22.2222V22.2222Z" fill="url(#paint0_linear_1_2)"/>
<path d="M40.648 15L40.64 12.032L39.2 14.448H38.496L37.056 12.096V15H35.6V9.4H36.904L38.872 12.632L40.792 9.4H42.096L42.112 15H40.648ZM48.5115 9.4V15H46.9515V10.656H45.3435L45.3115 11.568C45.2848 12.368 45.2182 13.0187 45.1115 13.52C45.0102 14.0213 44.8342 14.4107 44.5835 14.688C44.3328 14.96 43.9782 15.096 43.5195 15.096C43.3062 15.096 43.0662 15.064 42.7995 15L42.8875 13.704C42.9568 13.72 43.0288 13.728 43.1035 13.728C43.3115 13.728 43.4715 13.6453 43.5835 13.48C43.6955 13.3147 43.7755 13.0853 43.8235 12.792C43.8715 12.4933 43.9035 12.1067 43.9195 11.632L43.9995 9.4H48.5115ZM50.2374 15.072C49.9814 15.072 49.7654 14.9867 49.5894 14.816C49.4134 14.6453 49.3254 14.4293 49.3254 14.168C49.3254 13.9013 49.4107 13.6853 49.5814 13.52C49.7574 13.3547 49.976 13.272 50.2374 13.272C50.504 13.272 50.7227 13.3547 50.8934 13.52C51.064 13.6853 51.1494 13.9013 51.1494 14.168C51.1494 14.4293 51.0614 14.6453 50.8854 14.816C50.7147 14.9867 50.4987 15.072 50.2374 15.072ZM56.089 13.912H53.721L53.281 15H51.665L54.137 9.4H55.697L58.177 15H56.529L56.089 13.912ZM55.625 12.744L54.905 10.952L54.185 12.744H55.625ZM64.8973 13.744V16.128H63.4493V15H59.8653V16.128H58.4093V13.744H58.6093C58.9399 13.7387 59.1719 13.512 59.3053 13.064C59.4439 12.616 59.5293 11.9707 59.5613 11.128L59.6253 9.4H64.1373V13.744H64.8973ZM60.9453 11.264C60.9239 11.8613 60.8759 12.368 60.8013 12.784C60.7266 13.2 60.6119 13.52 60.4573 13.744H62.5773V10.656H60.9693L60.9453 11.264ZM70.7027 15L70.6947 12.032L69.2547 14.448H68.5507L67.1107 12.096V15H65.6547V9.4H66.9587L68.9267 12.632L70.8467 9.4H72.1507L72.1667 15H70.7027ZM73.3578 9.4H74.9178V12.688L77.2298 9.4H78.7178V15H77.1578V11.72L74.8538 15H73.3578V9.4ZM85.2483 9.4V15H83.6643V12.816H81.5043V15H79.9203V9.4H81.5043V11.504H83.6643V9.4H85.2483ZM86.4516 9.4H88.0116V12.688L90.3236 9.4H91.8116V15H90.2516V11.72L87.9476 15H86.4516V9.4ZM95.7421 15.112C95.1554 15.112 94.6274 14.9893 94.1581 14.744C93.6941 14.4933 93.3287 14.1467 93.0621 13.704C92.7954 13.2613 92.6621 12.76 92.6621 12.2C92.6621 11.64 92.7954 11.1387 93.0621 10.696C93.3287 10.2533 93.6941 9.90933 94.1581 9.664C94.6274 9.41333 95.1554 9.288 95.7421 9.288C96.2541 9.288 96.7154 9.37867 97.1261 9.56C97.5367 9.74133 97.8781 10.0027 98.1501 10.344L97.1421 11.256C96.7794 10.8187 96.3394 10.6 95.8221 10.6C95.5181 10.6 95.2461 10.6667 95.0061 10.8C94.7714 10.9333 94.5874 11.1227 94.4541 11.368C94.3261 11.608 94.2621 11.8853 94.2621 12.2C94.2621 12.5147 94.3261 12.7947 94.4541 13.04C94.5874 13.28 94.7714 13.4667 95.0061 13.6C95.2461 13.7333 95.5181 13.8 95.8221 13.8C96.3394 13.8 96.7794 13.5813 97.1421 13.144L98.1501 14.056C97.8781 14.3973 97.5367 14.6587 97.1261 14.84C96.7154 15.0213 96.2541 15.112 95.7421 15.112ZM103.331 10.656H101.619V15H100.059V10.656H98.3388V9.4H103.331V10.656ZM106.621 9.4C107.128 9.4 107.568 9.48533 107.941 9.656C108.314 9.82133 108.602 10.0613 108.805 10.376C109.008 10.6853 109.109 11.0507 109.109 11.472C109.109 11.8933 109.008 12.2587 108.805 12.568C108.602 12.8773 108.314 13.1173 107.941 13.288C107.568 13.4533 107.128 13.536 106.621 13.536H105.645V15H104.061V9.4H106.621ZM106.525 12.288C106.85 12.288 107.096 12.2187 107.261 12.08C107.426 11.936 107.509 11.7333 107.509 11.472C107.509 11.2107 107.426 11.008 107.261 10.864C107.096 10.72 106.85 10.648 106.525 10.648H105.645V12.288H106.525ZM113.409 13.912H111.041L110.601 15H108.985L111.457 9.4H113.017L115.497 15H113.849L113.409 13.912ZM112.945 12.744L112.225 10.952L111.505 12.744H112.945ZM120.37 10.656H118.658V15H117.098V10.656H115.378V9.4H120.37V10.656ZM123.774 15.112C123.182 15.112 122.649 14.9867 122.174 14.736C121.705 14.4853 121.334 14.1387 121.062 13.696C120.795 13.2533 120.662 12.7547 120.662 12.2C120.662 11.6453 120.795 11.1467 121.062 10.704C121.334 10.2613 121.705 9.91467 122.174 9.664C122.649 9.41333 123.182 9.288 123.774 9.288C124.366 9.288 124.897 9.41333 125.366 9.664C125.841 9.91467 126.211 10.2613 126.478 10.704C126.75 11.1467 126.886 11.6453 126.886 12.2C126.886 12.7547 126.75 13.2533 126.478 13.696C126.211 14.1387 125.841 14.4853 125.366 14.736C124.897 14.9867 124.366 15.112 123.774 15.112ZM123.774 13.8C124.057 13.8 124.313 13.7333 124.542 13.6C124.771 13.4667 124.953 13.28 125.086 13.04C125.219 12.7947 125.286 12.5147 125.286 12.2C125.286 11.8853 125.219 11.608 125.086 11.368C124.953 11.1227 124.771 10.9333 124.542 10.8C124.313 10.6667 124.057 10.6 123.774 10.6C123.491 10.6 123.235 10.6667 123.006 10.8C122.777 10.9333 122.595 11.1227 122.462 11.368C122.329 11.608 122.262 11.8853 122.262 12.2C122.262 12.5147 122.329 12.7947 122.462 13.04C122.595 13.28 122.777 13.4667 123.006 13.6C123.235 13.7333 123.491 13.8 123.774 13.8ZM130.293 9.4C130.799 9.4 131.239 9.48533 131.613 9.656C131.986 9.82133 132.274 10.0613 132.477 10.376C132.679 10.6853 132.781 11.0507 132.781 11.472C132.781 11.8933 132.679 12.2587 132.477 12.568C132.274 12.8773 131.986 13.1173 131.613 13.288C131.239 13.4533 130.799 13.536 130.293 13.536H129.317V15H127.733V9.4H130.293ZM130.197 12.288C130.522 12.288 130.767 12.2187 130.933 12.08C131.098 11.936 131.181 11.7333 131.181 11.472C131.181 11.2107 131.098 11.008 130.933 10.864C130.767 10.72 130.522 10.648 130.197 10.648H129.317V12.288H130.197Z" fill="white"/>
</g>
<defs>
<linearGradient id="paint0_linear_1_2" x1="32.3003" y1="-15.3226" x2="122.353" y2="101.732" gradientUnits="userSpaceOnUse">
<stop stop-color="#6F5E1A"/>
<stop offset="0.9986" stop-color="#DFBD34"/>
</linearGradient>
<clipPath id="clip0_1_2">
<rect width="169" height="25" fill="white"/>
</clipPath>
</defs>
</svg>
