<svg width="169" height="25" viewBox="0 0 169 25" fill="none" xmlns="http://www.w3.org/2000/svg">
<g clip-path="url(#clip0_1_2)">
<path d="M0 22.2222C0 9.94923 9.94923 0 22.2222 0H166.222C167.756 0 169 1.24365 169 2.77778V2.77778C169 15.0508 159.051 25 146.778 25H2.77777C1.24365 25 0 23.7563 0 22.2222V22.2222Z" fill="url(#paint0_linear_1_2)"/>
<path d="M61.648 15L61.64 12.032L60.2 14.448H59.496L58.056 12.096V15H56.6V9.4H57.904L59.872 12.632L61.792 9.4H63.096L63.112 15H61.648ZM67.0551 15.112C66.4631 15.112 65.9298 14.9867 65.4551 14.736C64.9858 14.4853 64.6151 14.1387 64.3431 13.696C64.0765 13.2533 63.9431 12.7547 63.9431 12.2C63.9431 11.6453 64.0765 11.1467 64.3431 10.704C64.6151 10.2613 64.9858 9.91467 65.4551 9.664C65.9298 9.41333 66.4631 9.288 67.0551 9.288C67.6471 9.288 68.1778 9.41333 68.6471 9.664C69.1218 9.91467 69.4925 10.2613 69.7591 10.704C70.0311 11.1467 70.1671 11.6453 70.1671 12.2C70.1671 12.7547 70.0311 13.2533 69.7591 13.696C69.4925 14.1387 69.1218 14.4853 68.6471 14.736C68.1778 14.9867 67.6471 15.112 67.0551 15.112ZM67.0551 13.8C67.3378 13.8 67.5938 13.7333 67.8231 13.6C68.0525 13.4667 68.2338 13.28 68.3671 13.04C68.5005 12.7947 68.5671 12.5147 68.5671 12.2C68.5671 11.8853 68.5005 11.608 68.3671 11.368C68.2338 11.1227 68.0525 10.9333 67.8231 10.8C67.5938 10.6667 67.3378 10.6 67.0551 10.6C66.7725 10.6 66.5165 10.6667 66.2871 10.8C66.0578 10.9333 65.8765 11.1227 65.7431 11.368C65.6098 11.608 65.5431 11.8853 65.5431 12.2C65.5431 12.5147 65.6098 12.7947 65.7431 13.04C65.8765 13.28 66.0578 13.4667 66.2871 13.6C66.5165 13.7333 66.7725 13.8 67.0551 13.8ZM76.8738 13.744V16.128H75.4258V15H71.8418V16.128H70.3858V13.744H70.5858C70.9165 13.7387 71.1485 13.512 71.2818 13.064C71.4205 12.616 71.5058 11.9707 71.5378 11.128L71.6018 9.4H76.1138V13.744H76.8738ZM72.9218 11.264C72.9005 11.8613 72.8525 12.368 72.7778 12.784C72.7031 13.2 72.5885 13.52 72.4338 13.744H74.5538V10.656H72.9458L72.9218 11.264ZM82.1273 13.776V15H77.6313V9.4H82.0233V10.624H79.1993V11.568H81.6873V12.752H79.1993V13.776H82.1273ZM85.5897 9.4C86.0964 9.4 86.5364 9.48533 86.9097 9.656C87.283 9.82133 87.571 10.0613 87.7737 10.376C87.9764 10.6853 88.0777 11.0507 88.0777 11.472C88.0777 11.8933 87.9764 12.2587 87.7737 12.568C87.571 12.8773 87.283 13.1173 86.9097 13.288C86.5364 13.4533 86.0964 13.536 85.5897 13.536H84.6137V15H83.0297V9.4H85.5897ZM85.4937 12.288C85.819 12.288 86.0644 12.2187 86.2297 12.08C86.395 11.936 86.4777 11.7333 86.4777 11.472C86.4777 11.2107 86.395 11.008 86.2297 10.864C86.0644 10.72 85.819 10.648 85.4937 10.648H84.6137V12.288H85.4937ZM92.3781 13.912H90.0101L89.5701 15H87.9541L90.4261 9.4H91.9861L94.4661 15H92.8181L92.3781 13.912ZM91.9141 12.744L91.1941 10.952L90.4741 12.744H91.9141ZM99.3386 10.656H97.6266V15H96.0666V10.656H94.3466V9.4H99.3386V10.656ZM102.743 15.112C102.151 15.112 101.617 14.9867 101.143 14.736C100.673 14.4853 100.303 14.1387 100.031 13.696C99.764 13.2533 99.6306 12.7547 99.6306 12.2C99.6306 11.6453 99.764 11.1467 100.031 10.704C100.303 10.2613 100.673 9.91467 101.143 9.664C101.617 9.41333 102.151 9.288 102.743 9.288C103.335 9.288 103.865 9.41333 104.335 9.664C104.809 9.91467 105.18 10.2613 105.447 10.704C105.719 11.1467 105.855 11.6453 105.855 12.2C105.855 12.7547 105.719 13.2533 105.447 13.696C105.18 14.1387 104.809 14.4853 104.335 14.736C103.865 14.9867 103.335 15.112 102.743 15.112ZM102.743 13.8C103.025 13.8 103.281 13.7333 103.511 13.6C103.74 13.4667 103.921 13.28 104.055 13.04C104.188 12.7947 104.255 12.5147 104.255 12.2C104.255 11.8853 104.188 11.608 104.055 11.368C103.921 11.1227 103.74 10.9333 103.511 10.8C103.281 10.6667 103.025 10.6 102.743 10.6C102.46 10.6 102.204 10.6667 101.975 10.8C101.745 10.9333 101.564 11.1227 101.431 11.368C101.297 11.608 101.231 11.8853 101.231 12.2C101.231 12.5147 101.297 12.7947 101.431 13.04C101.564 13.28 101.745 13.4667 101.975 13.6C102.204 13.7333 102.46 13.8 102.743 13.8ZM109.262 9.4C109.768 9.4 110.208 9.48533 110.582 9.656C110.955 9.82133 111.243 10.0613 111.446 10.376C111.648 10.6853 111.75 11.0507 111.75 11.472C111.75 11.8933 111.648 12.2587 111.446 12.568C111.243 12.8773 110.955 13.1173 110.582 13.288C110.208 13.4533 109.768 13.536 109.262 13.536H108.286V15H106.702V9.4H109.262ZM109.166 12.288C109.491 12.288 109.736 12.2187 109.902 12.08C110.067 11.936 110.15 11.7333 110.15 11.472C110.15 11.2107 110.067 11.008 109.902 10.864C109.736 10.72 109.491 10.648 109.166 10.648H108.286V12.288H109.166Z" fill="white"/>
</g>
<defs>
<linearGradient id="paint0_linear_1_2" x1="32.3003" y1="-15.3226" x2="122.353" y2="101.732" gradientUnits="userSpaceOnUse">
<stop stop-color="#0C5143"/>
<stop offset="0.947917" stop-color="#1BB99A"/>
</linearGradient>
<clipPath id="clip0_1_2">
<rect width="169" height="25" fill="white"/>
</clipPath>
</defs>
</svg>
