<svg width="169" height="25" viewBox="0 0 169 25" fill="none" xmlns="http://www.w3.org/2000/svg">
<g clip-path="url(#clip0_1_2)">
<path d="M0 22.2222C0 9.94923 9.94923 0 22.2222 0H166.222C167.756 0 169 1.24365 169 2.77778V2.77778C169 15.0508 159.051 25 146.778 25H2.77777C1.24365 25 0 23.7563 0 22.2222V22.2222Z" fill="url(#paint0_linear_1_2)"/>
<path d="M57.352 15.112C56.76 15.112 56.2267 14.9867 55.752 14.736C55.2827 14.4853 54.912 14.1387 54.64 13.696C54.3733 13.2533 54.24 12.7547 54.24 12.2C54.24 11.6453 54.3733 11.1467 54.64 10.704C54.912 10.2613 55.2827 9.91467 55.752 9.664C56.2267 9.41333 56.76 9.288 57.352 9.288C57.944 9.288 58.4747 9.41333 58.944 9.664C59.4187 9.91467 59.7893 10.2613 60.056 10.704C60.328 11.1467 60.464 11.6453 60.464 12.2C60.464 12.7547 60.328 13.2533 60.056 13.696C59.7893 14.1387 59.4187 14.4853 58.944 14.736C58.4747 14.9867 57.944 15.112 57.352 15.112ZM57.352 13.8C57.6347 13.8 57.8907 13.7333 58.12 13.6C58.3493 13.4667 58.5307 13.28 58.664 13.04C58.7973 12.7947 58.864 12.5147 58.864 12.2C58.864 11.8853 58.7973 11.608 58.664 11.368C58.5307 11.1227 58.3493 10.9333 58.12 10.8C57.8907 10.6667 57.6347 10.6 57.352 10.6C57.0693 10.6 56.8133 10.6667 56.584 10.8C56.3547 10.9333 56.1733 11.1227 56.04 11.368C55.9067 11.608 55.84 11.8853 55.84 12.2C55.84 12.5147 55.9067 12.7947 56.04 13.04C56.1733 13.28 56.3547 13.4667 56.584 13.6C56.8133 13.7333 57.0693 13.8 57.352 13.8ZM64.0389 15.112C63.4523 15.112 62.9243 14.9893 62.4549 14.744C61.9909 14.4933 61.6256 14.1467 61.3589 13.704C61.0923 13.2613 60.9589 12.76 60.9589 12.2C60.9589 11.64 61.0923 11.1387 61.3589 10.696C61.6256 10.2533 61.9909 9.90933 62.4549 9.664C62.9243 9.41333 63.4523 9.288 64.0389 9.288C64.5509 9.288 65.0123 9.37867 65.4229 9.56C65.8336 9.74133 66.1749 10.0027 66.4469 10.344L65.4389 11.256C65.0763 10.8187 64.6363 10.6 64.1189 10.6C63.8149 10.6 63.5429 10.6667 63.3029 10.8C63.0683 10.9333 62.8843 11.1227 62.7509 11.368C62.6229 11.608 62.5589 11.8853 62.5589 12.2C62.5589 12.5147 62.6229 12.7947 62.7509 13.04C62.8843 13.28 63.0683 13.4667 63.3029 13.6C63.5429 13.7333 63.8149 13.8 64.1189 13.8C64.6363 13.8 65.0763 13.5813 65.4389 13.144L66.4469 14.056C66.1749 14.3973 65.8336 14.6587 65.4229 14.84C65.0123 15.0213 64.5509 15.112 64.0389 15.112ZM72.4905 9.4V15H70.9065V12.816H68.7465V15H67.1625V9.4H68.7465V11.504H70.9065V9.4H72.4905ZM76.4458 15.112C75.8538 15.112 75.3204 14.9867 74.8458 14.736C74.3764 14.4853 74.0058 14.1387 73.7338 13.696C73.4671 13.2533 73.3338 12.7547 73.3338 12.2C73.3338 11.6453 73.4671 11.1467 73.7338 10.704C74.0058 10.2613 74.3764 9.91467 74.8458 9.664C75.3204 9.41333 75.8538 9.288 76.4458 9.288C77.0378 9.288 77.5684 9.41333 78.0378 9.664C78.5124 9.91467 78.8831 10.2613 79.1498 10.704C79.4218 11.1467 79.5578 11.6453 79.5578 12.2C79.5578 12.7547 79.4218 13.2533 79.1498 13.696C78.8831 14.1387 78.5124 14.4853 78.0378 14.736C77.5684 14.9867 77.0378 15.112 76.4458 15.112ZM76.4458 13.8C76.7284 13.8 76.9844 13.7333 77.2138 13.6C77.4431 13.4667 77.6244 13.28 77.7578 13.04C77.8911 12.7947 77.9578 12.5147 77.9578 12.2C77.9578 11.8853 77.8911 11.608 77.7578 11.368C77.6244 11.1227 77.4431 10.9333 77.2138 10.8C76.9844 10.6667 76.7284 10.6 76.4458 10.6C76.1631 10.6 75.9071 10.6667 75.6778 10.8C75.4484 10.9333 75.2671 11.1227 75.1338 11.368C75.0004 11.608 74.9338 11.8853 74.9338 12.2C74.9338 12.5147 75.0004 12.7947 75.1338 13.04C75.2671 13.28 75.4484 13.4667 75.6778 13.6C75.9071 13.7333 76.1631 13.8 76.4458 13.8ZM84.4847 12.072C84.8154 12.1787 85.066 12.344 85.2367 12.568C85.4127 12.792 85.5007 13.0693 85.5007 13.4C85.5007 13.896 85.306 14.288 84.9167 14.576C84.5327 14.8587 83.986 15 83.2767 15H80.4047V9.4H83.1247C83.7967 9.4 84.3167 9.528 84.6847 9.784C85.058 10.0347 85.2447 10.392 85.2447 10.856C85.2447 11.128 85.178 11.368 85.0447 11.576C84.9167 11.784 84.73 11.9493 84.4847 12.072ZM81.9647 11.64H82.9727C83.4207 11.64 83.6447 11.456 83.6447 11.088C83.6447 10.72 83.4207 10.536 82.9727 10.536H81.9647V11.64ZM83.2127 13.864C83.6714 13.864 83.9007 13.6693 83.9007 13.28C83.9007 12.9013 83.6714 12.712 83.2127 12.712H81.9647V13.864H83.2127ZM90.2218 13.912H87.8538L87.4138 15H85.7978L88.2698 9.4H89.8298L92.3098 15H90.6618L90.2218 13.912ZM89.7578 12.744L89.0378 10.952L88.3178 12.744H89.7578ZM97.1823 10.656H95.4703V15H93.9103V10.656H92.1903V9.4H97.1823V10.656ZM102.409 13.776V15H97.9125V9.4H102.305V10.624H99.4805V11.568H101.969V12.752H99.4805V13.776H102.409ZM108.535 9.4V15H106.975V10.656H105.367L105.335 11.568C105.308 12.368 105.242 13.0187 105.135 13.52C105.034 14.0213 104.858 14.4107 104.607 14.688C104.356 14.96 104.002 15.096 103.543 15.096C103.33 15.096 103.09 15.064 102.823 15L102.911 13.704C102.98 13.72 103.052 13.728 103.127 13.728C103.335 13.728 103.495 13.6453 103.607 13.48C103.719 13.3147 103.799 13.0853 103.847 12.792C103.895 12.4933 103.927 12.1067 103.943 11.632L104.023 9.4H108.535ZM112.589 11.184C113.277 11.184 113.807 11.3387 114.181 11.648C114.554 11.952 114.741 12.4053 114.741 13.008C114.741 13.6533 114.533 14.1467 114.117 14.488C113.701 14.8293 113.122 15 112.381 15H109.733V9.4H111.293V11.184H112.589ZM112.277 13.864C112.543 13.864 112.754 13.792 112.909 13.648C113.069 13.504 113.149 13.3013 113.149 13.04C113.149 12.5547 112.858 12.312 112.277 12.312H111.293V13.864H112.277Z" fill="white"/>
</g>
<defs>
<linearGradient id="paint0_linear_1_2" x1="32.3003" y1="-15.3226" x2="122.353" y2="101.732" gradientUnits="userSpaceOnUse">
<stop stop-color="#570000"/>
<stop offset="0.9987" stop-color="#FF0000"/>
<stop offset="0.9988" stop-color="#45D33E"/>
</linearGradient>
<clipPath id="clip0_1_2">
<rect width="169" height="25" fill="white"/>
</clipPath>
</defs>
</svg>
