<svg width="169" height="25" viewBox="0 0 169 25" fill="none" xmlns="http://www.w3.org/2000/svg">
<g clip-path="url(#clip0_1_2)">
<path d="M0 22.2222C0 9.94923 9.94923 0 22.2222 0H166.222C167.756 0 169 1.24365 169 2.77778V2.77778C169 15.0508 159.051 25 146.778 25H2.77777C1.24365 25 0 23.7563 0 22.2222V22.2222Z" fill="url(#paint0_linear_1_2)"/>
<path d="M40.328 15.112C39.7413 15.112 39.2133 14.9893 38.744 14.744C38.28 14.4933 37.9147 14.1467 37.648 13.704C37.3813 13.2613 37.248 12.76 37.248 12.2C37.248 11.64 37.3813 11.1387 37.648 10.696C37.9147 10.2533 38.28 9.90933 38.744 9.664C39.2133 9.41333 39.7413 9.288 40.328 9.288C40.84 9.288 41.3013 9.37867 41.712 9.56C42.1227 9.74133 42.464 10.0027 42.736 10.344L41.728 11.256C41.3653 10.8187 40.9253 10.6 40.408 10.6C40.104 10.6 39.832 10.6667 39.592 10.8C39.3573 10.9333 39.1733 11.1227 39.04 11.368C38.912 11.608 38.848 11.8853 38.848 12.2C38.848 12.5147 38.912 12.7947 39.04 13.04C39.1733 13.28 39.3573 13.4667 39.592 13.6C39.832 13.7333 40.104 13.8 40.408 13.8C40.9253 13.8 41.3653 13.5813 41.728 13.144L42.736 14.056C42.464 14.3973 42.1227 14.6587 41.712 14.84C41.3013 15.0213 40.84 15.112 40.328 15.112ZM47.9167 10.656H46.2047V15H44.6447V10.656H42.9247V9.4H47.9167V10.656ZM48.9014 15.072C48.6454 15.072 48.4294 14.9867 48.2534 14.816C48.0774 14.6453 47.9894 14.4293 47.9894 14.168C47.9894 13.9013 48.0748 13.6853 48.2454 13.52C48.4214 13.3547 48.6401 13.272 48.9014 13.272C49.1681 13.272 49.3868 13.3547 49.5574 13.52C49.7281 13.6853 49.8134 13.9013 49.8134 14.168C49.8134 14.4293 49.7254 14.6453 49.5494 14.816C49.3788 14.9867 49.1628 15.072 48.9014 15.072ZM54.7531 13.912H52.3851L51.9451 15H50.3291L52.8011 9.4H54.3611L56.8411 15H55.1931L54.7531 13.912ZM54.2891 12.744L53.5691 10.952L52.8491 12.744H54.2891ZM63.5613 13.744V16.128H62.1133V15H58.5293V16.128H57.0733V13.744H57.2733C57.604 13.7387 57.836 13.512 57.9693 13.064C58.108 12.616 58.1933 11.9707 58.2253 11.128L58.2893 9.4H62.8013V13.744H63.5613ZM59.6093 11.264C59.588 11.8613 59.54 12.368 59.4653 12.784C59.3906 13.2 59.276 13.52 59.1213 13.744H61.2413V10.656H59.6333L59.6093 11.264ZM69.3668 15L69.3588 12.032L67.9188 14.448H67.2148L65.7747 12.096V15H64.3188V9.4H65.6228L67.5908 12.632L69.5108 9.4H70.8148L70.8308 15H69.3668ZM72.0219 9.4H73.5819V12.688L75.8939 9.4H77.3819V15H75.8219V11.72L73.5179 15H72.0219V9.4ZM83.9124 9.4V15H82.3284V12.816H80.1684V15H78.5844V9.4H80.1684V11.504H82.3284V9.4H83.9124ZM85.1156 9.4H86.6756V12.688L88.9876 9.4H90.4756V15H88.9156V11.72L86.6116 15H85.1156V9.4ZM94.4061 15.112C93.8195 15.112 93.2915 14.9893 92.8221 14.744C92.3581 14.4933 91.9928 14.1467 91.7261 13.704C91.4595 13.2613 91.3261 12.76 91.3261 12.2C91.3261 11.64 91.4595 11.1387 91.7261 10.696C91.9928 10.2533 92.3581 9.90933 92.8221 9.664C93.2915 9.41333 93.8195 9.288 94.4061 9.288C94.9181 9.288 95.3795 9.37867 95.7901 9.56C96.2008 9.74133 96.5421 10.0027 96.8141 10.344L95.8061 11.256C95.4435 10.8187 95.0035 10.6 94.4861 10.6C94.1821 10.6 93.9101 10.6667 93.6701 10.8C93.4355 10.9333 93.2515 11.1227 93.1181 11.368C92.9901 11.608 92.9261 11.8853 92.9261 12.2C92.9261 12.5147 92.9901 12.7947 93.1181 13.04C93.2515 13.28 93.4355 13.4667 93.6701 13.6C93.9101 13.7333 94.1821 13.8 94.4861 13.8C95.0035 13.8 95.4435 13.5813 95.8061 13.144L96.8141 14.056C96.5421 14.3973 96.2008 14.6587 95.7901 14.84C95.3795 15.0213 94.9181 15.112 94.4061 15.112ZM101.995 10.656H100.283V15H98.7228V10.656H97.0028V9.4H101.995V10.656ZM105.285 9.4C105.792 9.4 106.232 9.48533 106.605 9.656C106.978 9.82133 107.266 10.0613 107.469 10.376C107.672 10.6853 107.773 11.0507 107.773 11.472C107.773 11.8933 107.672 12.2587 107.469 12.568C107.266 12.8773 106.978 13.1173 106.605 13.288C106.232 13.4533 105.792 13.536 105.285 13.536H104.309V15H102.725V9.4H105.285ZM105.189 12.288C105.514 12.288 105.76 12.2187 105.925 12.08C106.09 11.936 106.173 11.7333 106.173 11.472C106.173 11.2107 106.09 11.008 105.925 10.864C105.76 10.72 105.514 10.648 105.189 10.648H104.309V12.288H105.189ZM112.073 13.912H109.705L109.265 15H107.649L110.121 9.4H111.681L114.161 15H112.513L112.073 13.912ZM111.609 12.744L110.889 10.952L110.169 12.744H111.609ZM119.034 10.656H117.322V15H115.762V10.656H114.042V9.4H119.034V10.656ZM122.438 15.112C121.846 15.112 121.313 14.9867 120.838 14.736C120.369 14.4853 119.998 14.1387 119.726 13.696C119.459 13.2533 119.326 12.7547 119.326 12.2C119.326 11.6453 119.459 11.1467 119.726 10.704C119.998 10.2613 120.369 9.91467 120.838 9.664C121.313 9.41333 121.846 9.288 122.438 9.288C123.03 9.288 123.561 9.41333 124.03 9.664C124.505 9.91467 124.875 10.2613 125.142 10.704C125.414 11.1467 125.55 11.6453 125.55 12.2C125.55 12.7547 125.414 13.2533 125.142 13.696C124.875 14.1387 124.505 14.4853 124.03 14.736C123.561 14.9867 123.03 15.112 122.438 15.112ZM122.438 13.8C122.721 13.8 122.977 13.7333 123.206 13.6C123.435 13.4667 123.617 13.28 123.75 13.04C123.883 12.7947 123.95 12.5147 123.95 12.2C123.95 11.8853 123.883 11.608 123.75 11.368C123.617 11.1227 123.435 10.9333 123.206 10.8C122.977 10.6667 122.721 10.6 122.438 10.6C122.155 10.6 121.899 10.6667 121.67 10.8C121.441 10.9333 121.259 11.1227 121.126 11.368C120.993 11.608 120.926 11.8853 120.926 12.2C120.926 12.5147 120.993 12.7947 121.126 13.04C121.259 13.28 121.441 13.4667 121.67 13.6C121.899 13.7333 122.155 13.8 122.438 13.8ZM128.957 9.4C129.464 9.4 129.904 9.48533 130.277 9.656C130.65 9.82133 130.938 10.0613 131.141 10.376C131.344 10.6853 131.445 11.0507 131.445 11.472C131.445 11.8933 131.344 12.2587 131.141 12.568C130.938 12.8773 130.65 13.1173 130.277 13.288C129.904 13.4533 129.464 13.536 128.957 13.536H127.981V15H126.397V9.4H128.957ZM128.861 12.288C129.186 12.288 129.432 12.2187 129.597 12.08C129.762 11.936 129.845 11.7333 129.845 11.472C129.845 11.2107 129.762 11.008 129.597 10.864C129.432 10.72 129.186 10.648 128.861 10.648H127.981V12.288H128.861Z" fill="white"/>
</g>
<defs>
<linearGradient id="paint0_linear_1_2" x1="32.3003" y1="-15.3226" x2="122.353" y2="101.732" gradientUnits="userSpaceOnUse">
<stop stop-color="#162C70"/>
<stop offset="0.9986" stop-color="#2F5CEC"/>
</linearGradient>
<clipPath id="clip0_1_2">
<rect width="169" height="25" fill="white"/>
</clipPath>
</defs>
</svg>
