<svg width="169" height="25" viewBox="0 0 169 25" fill="none" xmlns="http://www.w3.org/2000/svg">
<g clip-path="url(#clip0_1_2)">
<path d="M0 22.2222C0 9.94923 9.94923 0 22.2222 0H166.222C167.756 0 169 1.24365 169 2.77778V2.77778C169 15.0508 159.051 25 146.778 25H2.77777C1.24365 25 0 23.7563 0 22.2222V22.2222Z" fill="url(#paint0_linear_1_2)"/>
<path d="M33.328 15.112C32.7413 15.112 32.2133 14.9893 31.744 14.744C31.28 14.4933 30.9147 14.1467 30.648 13.704C30.3813 13.2613 30.248 12.76 30.248 12.2C30.248 11.64 30.3813 11.1387 30.648 10.696C30.9147 10.2533 31.28 9.90933 31.744 9.664C32.2133 9.41333 32.7413 9.288 33.328 9.288C33.84 9.288 34.3013 9.37867 34.712 9.56C35.1227 9.74133 35.464 10.0027 35.736 10.344L34.728 11.256C34.3653 10.8187 33.9253 10.6 33.408 10.6C33.104 10.6 32.832 10.6667 32.592 10.8C32.3573 10.9333 32.1733 11.1227 32.04 11.368C31.912 11.608 31.848 11.8853 31.848 12.2C31.848 12.5147 31.912 12.7947 32.04 13.04C32.1733 13.28 32.3573 13.4667 32.592 13.6C32.832 13.7333 33.104 13.8 33.408 13.8C33.9253 13.8 34.3653 13.5813 34.728 13.144L35.736 14.056C35.464 14.3973 35.1227 14.6587 34.712 14.84C34.3013 15.0213 33.84 15.112 33.328 15.112ZM41.7076 9.4V15H40.1396V10.656H38.0116V15H36.4516V9.4H41.7076ZM47.4007 13.776V15H42.9047V9.4H47.2967V10.624H44.4727V11.568H46.9607V12.752H44.4727V13.776H47.4007ZM54.3431 13.744V16.144H52.8951V15H48.3031V9.4H49.8631V13.744H52.0151V9.4H53.5751V13.744H54.3431ZM55.7218 15.072C55.4658 15.072 55.2498 14.9867 55.0738 14.816C54.8978 14.6453 54.8098 14.4293 54.8098 14.168C54.8098 13.9013 54.8951 13.6853 55.0658 13.52C55.2418 13.3547 55.4604 13.272 55.7218 13.272C55.9884 13.272 56.2071 13.3547 56.3778 13.52C56.5484 13.6853 56.6338 13.9013 56.6338 14.168C56.6338 14.4293 56.5458 14.6453 56.3698 14.816C56.1991 14.9867 55.9831 15.072 55.7218 15.072ZM61.5734 13.912H59.2054L58.7654 15H57.1494L59.6214 9.4H61.1814L63.6614 15H62.0134L61.5734 13.912ZM61.1094 12.744L60.3894 10.952L59.6694 12.744H61.1094ZM70.3816 13.744V16.128H68.9336V15H65.3496V16.128H63.8936V13.744H64.0936C64.4243 13.7387 64.6563 13.512 64.7896 13.064C64.9283 12.616 65.0136 11.9707 65.0456 11.128L65.1096 9.4H69.6216V13.744H70.3816ZM66.4296 11.264C66.4083 11.8613 66.3603 12.368 66.2856 12.784C66.211 13.2 66.0963 13.52 65.9416 13.744H68.0616V10.656H66.4536L66.4296 11.264ZM76.1871 15L76.1791 12.032L74.7391 14.448H74.0351L72.5951 12.096V15H71.1391V9.4H72.4431L74.4111 12.632L76.3311 9.4H77.6351L77.6511 15H76.1871ZM78.8422 9.4H80.4022V12.688L82.7142 9.4H84.2022V15H82.6422V11.72L80.3382 15H78.8422V9.4ZM90.7327 9.4V15H89.1487V12.816H86.9887V15H85.4047V9.4H86.9887V11.504H89.1487V9.4H90.7327ZM91.9359 9.4H93.4959V12.688L95.8079 9.4H97.2959V15H95.7359V11.72L93.4319 15H91.9359V9.4ZM101.226 15.112C100.64 15.112 100.112 14.9893 99.6424 14.744C99.1784 14.4933 98.8131 14.1467 98.5464 13.704C98.2798 13.2613 98.1464 12.76 98.1464 12.2C98.1464 11.64 98.2798 11.1387 98.5464 10.696C98.8131 10.2533 99.1784 9.90933 99.6424 9.664C100.112 9.41333 100.64 9.288 101.226 9.288C101.738 9.288 102.2 9.37867 102.61 9.56C103.021 9.74133 103.362 10.0027 103.634 10.344L102.626 11.256C102.264 10.8187 101.824 10.6 101.306 10.6C101.002 10.6 100.73 10.6667 100.49 10.8C100.256 10.9333 100.072 11.1227 99.9384 11.368C99.8104 11.608 99.7464 11.8853 99.7464 12.2C99.7464 12.5147 99.8104 12.7947 99.9384 13.04C100.072 13.28 100.256 13.4667 100.49 13.6C100.73 13.7333 101.002 13.8 101.306 13.8C101.824 13.8 102.264 13.5813 102.626 13.144L103.634 14.056C103.362 14.3973 103.021 14.6587 102.61 14.84C102.2 15.0213 101.738 15.112 101.226 15.112ZM108.815 10.656H107.103V15H105.543V10.656H103.823V9.4H108.815V10.656ZM112.105 9.4C112.612 9.4 113.052 9.48533 113.425 9.656C113.799 9.82133 114.087 10.0613 114.289 10.376C114.492 10.6853 114.593 11.0507 114.593 11.472C114.593 11.8933 114.492 12.2587 114.289 12.568C114.087 12.8773 113.799 13.1173 113.425 13.288C113.052 13.4533 112.612 13.536 112.105 13.536H111.129V15H109.545V9.4H112.105ZM112.009 12.288C112.335 12.288 112.58 12.2187 112.745 12.08C112.911 11.936 112.993 11.7333 112.993 11.472C112.993 11.2107 112.911 11.008 112.745 10.864C112.58 10.72 112.335 10.648 112.009 10.648H111.129V12.288H112.009ZM118.894 13.912H116.526L116.086 15H114.47L116.942 9.4H118.502L120.982 15H119.334L118.894 13.912ZM118.43 12.744L117.71 10.952L116.99 12.744H118.43ZM125.854 10.656H124.142V15H122.582V10.656H120.862V9.4H125.854V10.656ZM129.258 15.112C128.666 15.112 128.133 14.9867 127.658 14.736C127.189 14.4853 126.818 14.1387 126.546 13.696C126.28 13.2533 126.146 12.7547 126.146 12.2C126.146 11.6453 126.28 11.1467 126.546 10.704C126.818 10.2613 127.189 9.91467 127.658 9.664C128.133 9.41333 128.666 9.288 129.258 9.288C129.85 9.288 130.381 9.41333 130.85 9.664C131.325 9.91467 131.696 10.2613 131.962 10.704C132.234 11.1467 132.37 11.6453 132.37 12.2C132.37 12.7547 132.234 13.2533 131.962 13.696C131.696 14.1387 131.325 14.4853 130.85 14.736C130.381 14.9867 129.85 15.112 129.258 15.112ZM129.258 13.8C129.541 13.8 129.797 13.7333 130.026 13.6C130.256 13.4667 130.437 13.28 130.57 13.04C130.704 12.7947 130.77 12.5147 130.77 12.2C130.77 11.8853 130.704 11.608 130.57 11.368C130.437 11.1227 130.256 10.9333 130.026 10.8C129.797 10.6667 129.541 10.6 129.258 10.6C128.976 10.6 128.72 10.6667 128.49 10.8C128.261 10.9333 128.08 11.1227 127.946 11.368C127.813 11.608 127.746 11.8853 127.746 12.2C127.746 12.5147 127.813 12.7947 127.946 13.04C128.08 13.28 128.261 13.4667 128.49 13.6C128.72 13.7333 128.976 13.8 129.258 13.8ZM135.777 9.4C136.284 9.4 136.724 9.48533 137.097 9.656C137.471 9.82133 137.759 10.0613 137.961 10.376C138.164 10.6853 138.265 11.0507 138.265 11.472C138.265 11.8933 138.164 12.2587 137.961 12.568C137.759 12.8773 137.471 13.1173 137.097 13.288C136.724 13.4533 136.284 13.536 135.777 13.536H134.801V15H133.217V9.4H135.777ZM135.681 12.288C136.007 12.288 136.252 12.2187 136.417 12.08C136.583 11.936 136.665 11.7333 136.665 11.472C136.665 11.2107 136.583 11.008 136.417 10.864C136.252 10.72 136.007 10.648 135.681 10.648H134.801V12.288H135.681Z" fill="white"/>
</g>
<defs>
<linearGradient id="paint0_linear_1_2" x1="32.3003" y1="-15.3226" x2="122.353" y2="101.732" gradientUnits="userSpaceOnUse">
<stop stop-color="#570000"/>
<stop offset="0.9987" stop-color="#FF0000"/>
<stop offset="0.9988" stop-color="#45D33E"/>
</linearGradient>
<clipPath id="clip0_1_2">
<rect width="169" height="25" fill="white"/>
</clipPath>
</defs>
</svg>
