<svg width="169" height="25" viewBox="0 0 169 25" fill="none" xmlns="http://www.w3.org/2000/svg">
<g clip-path="url(#clip0_1_2)">
<path d="M0 22.2222C0 9.94923 9.94923 0 22.2222 0H166.222C167.756 0 169 1.24365 169 2.77778V2.77778C169 15.0508 159.051 25 146.778 25H2.77777C1.24365 25 0 23.7563 0 22.2222V22.2222Z" fill="url(#paint0_linear_1_2)"/>
<path d="M39.112 10.656H37.4V15H35.84V10.656H34.12V9.4H39.112V10.656ZM44.3382 13.776V15H39.8422V9.4H44.2342V10.624H41.4102V11.568H43.8982V12.752H41.4102V13.776H44.3382ZM46.5858 9.392L47.5858 10.912L48.5778 9.392H50.4178L48.5778 12.072L50.5778 15H48.7138L47.5858 13.344L46.4658 15H44.6418L46.6338 12.144L44.7698 9.392H46.5858ZM51.7608 15.072C51.5048 15.072 51.2888 14.9867 51.1128 14.816C50.9368 14.6453 50.8488 14.4293 50.8488 14.168C50.8488 13.9013 50.9341 13.6853 51.1048 13.52C51.2808 13.3547 51.4995 13.272 51.7608 13.272C52.0275 13.272 52.2461 13.3547 52.4168 13.52C52.5875 13.6853 52.6728 13.9013 52.6728 14.168C52.6728 14.4293 52.5848 14.6453 52.4088 14.816C52.2381 14.9867 52.0221 15.072 51.7608 15.072ZM57.6124 13.912H55.2444L54.8044 15H53.1884L55.6604 9.4H57.2204L59.7004 15H58.0524L57.6124 13.912ZM57.1484 12.744L56.4284 10.952L55.7084 12.744H57.1484ZM66.4207 13.744V16.128H64.9727V15H61.3887V16.128H59.9327V13.744H60.1327C60.4634 13.7387 60.6954 13.512 60.8287 13.064C60.9674 12.616 61.0527 11.9707 61.0847 11.128L61.1487 9.4H65.6607V13.744H66.4207ZM62.4687 11.264C62.4474 11.8613 62.3994 12.368 62.3247 12.784C62.25 13.2 62.1354 13.52 61.9807 13.744H64.1007V10.656H62.4927L62.4687 11.264ZM72.2261 15L72.2181 12.032L70.7781 14.448H70.0741L68.6341 12.096V15H67.1781V9.4H68.4821L70.4501 12.632L72.3701 9.4H73.6741L73.6901 15H72.2261ZM74.8813 9.4H76.4413V12.688L78.7533 9.4H80.2413V15H78.6813V11.72L76.3773 15H74.8813V9.4ZM86.7718 9.4V15H85.1878V12.816H83.0278V15H81.4438V9.4H83.0278V11.504H85.1878V9.4H86.7718ZM87.975 9.4H89.535V12.688L91.847 9.4H93.335V15H91.775V11.72L89.471 15H87.975V9.4ZM97.2655 15.112C96.6788 15.112 96.1508 14.9893 95.6815 14.744C95.2175 14.4933 94.8522 14.1467 94.5855 13.704C94.3188 13.2613 94.1855 12.76 94.1855 12.2C94.1855 11.64 94.3188 11.1387 94.5855 10.696C94.8522 10.2533 95.2175 9.90933 95.6815 9.664C96.1508 9.41333 96.6788 9.288 97.2655 9.288C97.7775 9.288 98.2388 9.37867 98.6495 9.56C99.0602 9.74133 99.4015 10.0027 99.6735 10.344L98.6655 11.256C98.3028 10.8187 97.8628 10.6 97.3455 10.6C97.0415 10.6 96.7695 10.6667 96.5295 10.8C96.2948 10.9333 96.1108 11.1227 95.9775 11.368C95.8495 11.608 95.7855 11.8853 95.7855 12.2C95.7855 12.5147 95.8495 12.7947 95.9775 13.04C96.1108 13.28 96.2948 13.4667 96.5295 13.6C96.7695 13.7333 97.0415 13.8 97.3455 13.8C97.8628 13.8 98.3028 13.5813 98.6655 13.144L99.6735 14.056C99.4015 14.3973 99.0602 14.6587 98.6495 14.84C98.2388 15.0213 97.7775 15.112 97.2655 15.112ZM104.854 10.656H103.142V15H101.582V10.656H99.8622V9.4H104.854V10.656ZM108.144 9.4C108.651 9.4 109.091 9.48533 109.464 9.656C109.838 9.82133 110.126 10.0613 110.328 10.376C110.531 10.6853 110.632 11.0507 110.632 11.472C110.632 11.8933 110.531 12.2587 110.328 12.568C110.126 12.8773 109.838 13.1173 109.464 13.288C109.091 13.4533 108.651 13.536 108.144 13.536H107.168V15H105.584V9.4H108.144ZM108.048 12.288C108.374 12.288 108.619 12.2187 108.784 12.08C108.95 11.936 109.032 11.7333 109.032 11.472C109.032 11.2107 108.95 11.008 108.784 10.864C108.619 10.72 108.374 10.648 108.048 10.648H107.168V12.288H108.048ZM114.933 13.912H112.565L112.125 15H110.509L112.981 9.4H114.541L117.021 15H115.373L114.933 13.912ZM114.469 12.744L113.749 10.952L113.029 12.744H114.469ZM121.893 10.656H120.181V15H118.621V10.656H116.901V9.4H121.893V10.656ZM125.297 15.112C124.705 15.112 124.172 14.9867 123.697 14.736C123.228 14.4853 122.857 14.1387 122.585 13.696C122.319 13.2533 122.185 12.7547 122.185 12.2C122.185 11.6453 122.319 11.1467 122.585 10.704C122.857 10.2613 123.228 9.91467 123.697 9.664C124.172 9.41333 124.705 9.288 125.297 9.288C125.889 9.288 126.42 9.41333 126.889 9.664C127.364 9.91467 127.735 10.2613 128.001 10.704C128.273 11.1467 128.409 11.6453 128.409 12.2C128.409 12.7547 128.273 13.2533 128.001 13.696C127.735 14.1387 127.364 14.4853 126.889 14.736C126.42 14.9867 125.889 15.112 125.297 15.112ZM125.297 13.8C125.58 13.8 125.836 13.7333 126.065 13.6C126.295 13.4667 126.476 13.28 126.609 13.04C126.743 12.7947 126.809 12.5147 126.809 12.2C126.809 11.8853 126.743 11.608 126.609 11.368C126.476 11.1227 126.295 10.9333 126.065 10.8C125.836 10.6667 125.58 10.6 125.297 10.6C125.015 10.6 124.759 10.6667 124.529 10.8C124.3 10.9333 124.119 11.1227 123.985 11.368C123.852 11.608 123.785 11.8853 123.785 12.2C123.785 12.5147 123.852 12.7947 123.985 13.04C124.119 13.28 124.3 13.4667 124.529 13.6C124.759 13.7333 125.015 13.8 125.297 13.8ZM131.816 9.4C132.323 9.4 132.763 9.48533 133.136 9.656C133.51 9.82133 133.798 10.0613 134 10.376C134.203 10.6853 134.304 11.0507 134.304 11.472C134.304 11.8933 134.203 12.2587 134 12.568C133.798 12.8773 133.51 13.1173 133.136 13.288C132.763 13.4533 132.323 13.536 131.816 13.536H130.84V15H129.256V9.4H131.816ZM131.72 12.288C132.046 12.288 132.291 12.2187 132.456 12.08C132.622 11.936 132.704 11.7333 132.704 11.472C132.704 11.2107 132.622 11.008 132.456 10.864C132.291 10.72 132.046 10.648 131.72 10.648H130.84V12.288H131.72Z" fill="white"/>
</g>
<defs>
<linearGradient id="paint0_linear_1_2" x1="32.3003" y1="-15.3226" x2="122.353" y2="101.732" gradientUnits="userSpaceOnUse">
<stop stop-color="#600000"/>
<stop offset="0.9986" stop-color="#B20000"/>
</linearGradient>
<clipPath id="clip0_1_2">
<rect width="169" height="25" fill="white"/>
</clipPath>
</defs>
</svg>
