<svg width="169" height="25" viewBox="0 0 169 25" fill="none" xmlns="http://www.w3.org/2000/svg">
<g clip-path="url(#clip0_1_2)">
<path d="M0 22.2222C0 9.94923 9.94923 0 22.2222 0H166.222C167.756 0 169 1.24365 169 2.77778V2.77778C169 15.0508 159.051 25 146.778 25H2.77777C1.24365 25 0 23.7563 0 22.2222V22.2222Z" fill="url(#paint0_linear_1_2)"/>
<path d="M53.856 9.4V15H52.288V10.656H50.16V15H48.6V9.4H53.856ZM57.8051 15.112C57.2131 15.112 56.6798 14.9867 56.2051 14.736C55.7358 14.4853 55.3651 14.1387 55.0931 13.696C54.8265 13.2533 54.6931 12.7547 54.6931 12.2C54.6931 11.6453 54.8265 11.1467 55.0931 10.704C55.3651 10.2613 55.7358 9.91467 56.2051 9.664C56.6798 9.41333 57.2131 9.288 57.8051 9.288C58.3971 9.288 58.9278 9.41333 59.3971 9.664C59.8718 9.91467 60.2425 10.2613 60.5091 10.704C60.7811 11.1467 60.9171 11.6453 60.9171 12.2C60.9171 12.7547 60.7811 13.2533 60.5091 13.696C60.2425 14.1387 59.8718 14.4853 59.3971 14.736C58.9278 14.9867 58.3971 15.112 57.8051 15.112ZM57.8051 13.8C58.0878 13.8 58.3438 13.7333 58.5731 13.6C58.8025 13.4667 58.9838 13.28 59.1171 13.04C59.2505 12.7947 59.3171 12.5147 59.3171 12.2C59.3171 11.8853 59.2505 11.608 59.1171 11.368C58.9838 11.1227 58.8025 10.9333 58.5731 10.8C58.3438 10.6667 58.0878 10.6 57.8051 10.6C57.5225 10.6 57.2665 10.6667 57.0371 10.8C56.8078 10.9333 56.6265 11.1227 56.4931 11.368C56.3598 11.608 56.2931 11.8853 56.2931 12.2C56.2931 12.5147 56.3598 12.7947 56.4931 13.04C56.6265 13.28 56.8078 13.4667 57.0371 13.6C57.2665 13.7333 57.5225 13.8 57.8051 13.8ZM66.8318 9.4V15H65.2718V10.656H63.6638L63.6318 11.568C63.6051 12.368 63.5385 13.0187 63.4318 13.52C63.3305 14.0213 63.1545 14.4107 62.9038 14.688C62.6531 14.96 62.2985 15.096 61.8398 15.096C61.6265 15.096 61.3865 15.064 61.1198 15L61.2078 13.704C61.2771 13.72 61.3491 13.728 61.4238 13.728C61.6318 13.728 61.7918 13.6453 61.9038 13.48C62.0158 13.3147 62.0958 13.0853 62.1438 12.792C62.1918 12.4933 62.2238 12.1067 62.2398 11.632L62.3198 9.4H66.8318ZM70.8857 11.184C71.5737 11.184 72.1044 11.3387 72.4777 11.648C72.851 11.952 73.0377 12.4053 73.0377 13.008C73.0377 13.6533 72.8297 14.1467 72.4137 14.488C71.9977 14.8293 71.419 15 70.6777 15H68.0297V9.4H69.5897V11.184H70.8857ZM70.5737 13.864C70.8404 13.864 71.051 13.792 71.2057 13.648C71.3657 13.504 71.4457 13.3013 71.4457 13.04C71.4457 12.5547 71.155 12.312 70.5737 12.312H69.5897V13.864H70.5737ZM77.1421 12.088C77.4515 12.2053 77.6941 12.3813 77.8701 12.616C78.0461 12.8507 78.1341 13.12 78.1341 13.424C78.1341 13.7707 78.0168 14.072 77.7821 14.328C77.5475 14.584 77.2301 14.7813 76.8301 14.92C76.4301 15.0533 75.9901 15.12 75.5101 15.12C75.1315 15.12 74.7448 15.0747 74.3501 14.984C73.9608 14.8933 73.5875 14.7573 73.2301 14.576L73.7021 13.472C73.9528 13.6 74.2195 13.6987 74.5021 13.768C74.7901 13.832 75.0675 13.864 75.3341 13.864C75.6861 13.864 75.9741 13.808 76.1981 13.696C76.4221 13.5787 76.5341 13.416 76.5341 13.208C76.5341 13.0427 76.4648 12.92 76.3261 12.84C76.1875 12.76 76.0008 12.72 75.7661 12.72H74.3341V11.56H75.6381C75.8515 11.56 76.0168 11.5173 76.1341 11.432C76.2515 11.3467 76.3101 11.232 76.3101 11.088C76.3101 10.9067 76.2195 10.768 76.0381 10.672C75.8568 10.5707 75.6221 10.52 75.3341 10.52C75.0995 10.52 74.8515 10.5547 74.5901 10.624C74.3288 10.688 74.0808 10.7813 73.8461 10.904L73.3821 9.704C73.9795 9.416 74.6355 9.272 75.3501 9.272C75.8088 9.272 76.2328 9.33867 76.6221 9.472C77.0168 9.6 77.3288 9.78667 77.5581 10.032C77.7928 10.2773 77.9101 10.568 77.9101 10.904C77.9101 11.1653 77.8408 11.4 77.7021 11.608C77.5688 11.8107 77.3821 11.9707 77.1421 12.088ZM81.7426 15.112C81.1506 15.112 80.6173 14.9867 80.1426 14.736C79.6733 14.4853 79.3026 14.1387 79.0306 13.696C78.764 13.2533 78.6306 12.7547 78.6306 12.2C78.6306 11.6453 78.764 11.1467 79.0306 10.704C79.3026 10.2613 79.6733 9.91467 80.1426 9.664C80.6173 9.41333 81.1506 9.288 81.7426 9.288C82.3346 9.288 82.8653 9.41333 83.3346 9.664C83.8093 9.91467 84.18 10.2613 84.4466 10.704C84.7186 11.1467 84.8546 11.6453 84.8546 12.2C84.8546 12.7547 84.7186 13.2533 84.4466 13.696C84.18 14.1387 83.8093 14.4853 83.3346 14.736C82.8653 14.9867 82.3346 15.112 81.7426 15.112ZM81.7426 13.8C82.0253 13.8 82.2813 13.7333 82.5106 13.6C82.74 13.4667 82.9213 13.28 83.0546 13.04C83.188 12.7947 83.2546 12.5147 83.2546 12.2C83.2546 11.8853 83.188 11.608 83.0546 11.368C82.9213 11.1227 82.74 10.9333 82.5106 10.8C82.2813 10.6667 82.0253 10.6 81.7426 10.6C81.46 10.6 81.204 10.6667 80.9746 10.8C80.7453 10.9333 80.564 11.1227 80.4306 11.368C80.2973 11.608 80.2306 11.8853 80.2306 12.2C80.2306 12.5147 80.2973 12.7947 80.4306 13.04C80.564 13.28 80.7453 13.4667 80.9746 13.6C81.204 13.7333 81.46 13.8 81.7426 13.8ZM89.7816 12.072C90.1122 12.1787 90.3629 12.344 90.5336 12.568C90.7096 12.792 90.7976 13.0693 90.7976 13.4C90.7976 13.896 90.6029 14.288 90.2136 14.576C89.8296 14.8587 89.2829 15 88.5736 15H85.7016V9.4H88.4216C89.0936 9.4 89.6136 9.528 89.9816 9.784C90.3549 10.0347 90.5416 10.392 90.5416 10.856C90.5416 11.128 90.4749 11.368 90.3416 11.576C90.2136 11.784 90.0269 11.9493 89.7816 12.072ZM87.2616 11.64H88.2696C88.7176 11.64 88.9416 11.456 88.9416 11.088C88.9416 10.72 88.7176 10.536 88.2696 10.536H87.2616V11.64ZM88.5096 13.864C88.9682 13.864 89.1976 13.6693 89.1976 13.28C89.1976 12.9013 88.9682 12.712 88.5096 12.712H87.2616V13.864H88.5096ZM95.5187 13.912H93.1507L92.7107 15H91.0947L93.5667 9.4H95.1267L97.6067 15H95.9587L95.5187 13.912ZM95.0547 12.744L94.3347 10.952L93.6147 12.744H95.0547ZM102.479 10.656H100.767V15H99.2072V10.656H97.4872V9.4H102.479V10.656ZM107.705 13.776V15H103.209V9.4H107.601V10.624H104.777V11.568H107.265V12.752H104.777V13.776H107.705ZM113.832 9.4V15H112.272V10.656H110.664L110.632 11.568C110.605 12.368 110.538 13.0187 110.432 13.52C110.33 14.0213 110.154 14.4107 109.904 14.688C109.653 14.96 109.298 15.096 108.84 15.096C108.626 15.096 108.386 15.064 108.12 15L108.208 13.704C108.277 13.72 108.349 13.728 108.424 13.728C108.632 13.728 108.792 13.6453 108.904 13.48C109.016 13.3147 109.096 13.0853 109.144 12.792C109.192 12.4933 109.224 12.1067 109.24 11.632L109.32 9.4H113.832ZM117.886 11.184C118.574 11.184 119.104 11.3387 119.478 11.648C119.851 11.952 120.038 12.4053 120.038 13.008C120.038 13.6533 119.83 14.1467 119.414 14.488C118.998 14.8293 118.419 15 117.678 15H115.03V9.4H116.59V11.184H117.886ZM117.574 13.864C117.84 13.864 118.051 13.792 118.206 13.648C118.366 13.504 118.446 13.3013 118.446 13.04C118.446 12.5547 118.155 12.312 117.574 12.312H116.59V13.864H117.574Z" fill="white"/>
</g>
<defs>
<linearGradient id="paint0_linear_1_2" x1="32.3003" y1="-15.3226" x2="122.353" y2="101.732" gradientUnits="userSpaceOnUse">
<stop stop-color="#585858"/>
<stop offset="0.947917" stop-color="#B5B5B5"/>
</linearGradient>
<clipPath id="clip0_1_2">
<rect width="169" height="25" fill="white"/>
</clipPath>
</defs>
</svg>
