<?xml version="1.0" encoding="UTF-8"?>
<svg xmlns="http://www.w3.org/2000/svg" xmlns:xlink="http://www.w3.org/1999/xlink" width="20px" height="20px" viewBox="0 0 20 20" version="1.1">
<defs>
<filter id="alpha" filterUnits="objectBoundingBox" x="0%" y="0%" width="100%" height="100%">
  <feColorMatrix type="matrix" in="SourceGraphic" values="0 0 0 0 1 0 0 0 0 1 0 0 0 0 1 0 0 0 1 0"/>
</filter>
<mask id="mask0">
  <g filter="url(#alpha)">
<rect x="0" y="0" width="20" height="20" style="fill:rgb(0%,0%,0%);fill-opacity:0.964706;stroke:none;"/>
  </g>
</mask>
<clipPath id="clip1">
  <rect x="0" y="0" width="20" height="20"/>
</clipPath>
<g id="surface5" clip-path="url(#clip1)">
<path style=" stroke:none;fill-rule:evenodd;fill:rgb(0%,57.254902%,93.333333%);fill-opacity:1;" d="M 5.171875 3.128906 C 5.265625 3.136719 5.359375 3.136719 5.449219 3.128906 C 6.242188 3.285156 6.679688 3.761719 6.769531 4.550781 C 8.417969 5.3125 10.066406 6.078125 11.710938 6.851562 C 11.859375 6.5625 12 6.269531 12.140625 5.96875 C 12.253906 5.84375 12.394531 5.769531 12.558594 5.75 C 12.984375 5.777344 13.234375 6 13.308594 6.410156 C 13.296875 6.449219 13.285156 6.488281 13.28125 6.53125 C 12.964844 7.199219 12.648438 7.863281 12.328125 8.53125 C 10.292969 7.578125 8.253906 6.625 6.21875 5.671875 C 6.195312 5.691406 6.171875 5.714844 6.148438 5.738281 C 6.011719 5.8125 5.875 5.878906 5.738281 5.949219 C 5.734375 5.941406 5.726562 5.9375 5.71875 5.929688 C 5.128906 6.105469 4.617188 5.9375 4.179688 5.429688 C 3.816406 4.890625 3.796875 4.339844 4.121094 3.769531 C 4.398438 3.402344 4.75 3.1875 5.171875 3.128906 Z M 5.25 3.628906 C 5.308594 3.652344 5.363281 3.652344 5.421875 3.628906 C 5.492188 3.632812 5.558594 3.660156 5.621094 3.710938 C 5.628906 3.699219 5.636719 3.695312 5.648438 3.691406 C 6.074219 3.890625 6.273438 4.222656 6.25 4.679688 C 6.089844 5.246094 5.738281 5.515625 5.199219 5.488281 C 4.660156 5.363281 4.390625 5.019531 4.390625 4.460938 C 4.453125 4.121094 4.636719 3.871094 4.941406 3.710938 C 4.964844 3.730469 4.984375 3.722656 5 3.691406 C 5.023438 3.710938 5.042969 3.703125 5.058594 3.671875 C 5.066406 3.675781 5.074219 3.683594 5.078125 3.691406 C 5.136719 3.679688 5.191406 3.660156 5.25 3.628906 Z M 5.25 3.628906 "/>
</g>
<mask id="mask1">
  <g filter="url(#alpha)">
<rect x="0" y="0" width="20" height="20" style="fill:rgb(0%,0%,0%);fill-opacity:0.960784;stroke:none;"/>
  </g>
</mask>
<clipPath id="clip2">
  <rect x="0" y="0" width="20" height="20"/>
</clipPath>
<g id="surface8" clip-path="url(#clip2)">
<path style=" stroke:none;fill-rule:evenodd;fill:rgb(0%,57.254902%,93.333333%);fill-opacity:1;" d="M 15.210938 3.949219 C 15.304688 3.976562 15.402344 3.976562 15.5 3.949219 C 16.269531 4.097656 16.707031 4.5625 16.808594 5.339844 C 16.769531 6.109375 16.378906 6.597656 15.640625 6.808594 C 15.601562 6.78125 15.5625 6.789062 15.519531 6.828125 C 15.476562 6.816406 15.4375 6.808594 15.398438 6.808594 C 14.625 8.46875 13.847656 10.128906 13.070312 11.789062 C 13.363281 11.929688 13.65625 12.070312 13.949219 12.210938 C 14.148438 12.394531 14.210938 12.613281 14.140625 12.871094 C 14.023438 13.195312 13.796875 13.363281 13.460938 13.371094 C 12.78125 13.054688 12.105469 12.738281 11.429688 12.421875 C 11.417969 12.40625 11.414062 12.390625 11.410156 12.371094 C 12.351562 10.347656 13.292969 8.328125 14.238281 6.308594 C 14.253906 6.289062 14.253906 6.269531 14.238281 6.25 C 13.949219 5.859375 13.871094 5.425781 14 4.949219 C 14.066406 4.824219 14.125 4.699219 14.179688 4.570312 C 14.257812 4.488281 14.332031 4.398438 14.398438 4.308594 C 14.40625 4.316406 14.414062 4.324219 14.421875 4.328125 C 14.441406 4.304688 14.460938 4.277344 14.480469 4.25 C 14.488281 4.257812 14.492188 4.261719 14.5 4.269531 C 14.570312 4.195312 14.648438 4.136719 14.738281 4.089844 C 14.746094 4.097656 14.753906 4.101562 14.761719 4.109375 C 14.832031 4.070312 14.90625 4.03125 14.980469 3.988281 C 15 3.996094 15.019531 4.003906 15.039062 4.011719 C 15.097656 4 15.152344 3.980469 15.210938 3.949219 Z M 15.351562 4.449219 C 15.714844 4.46875 16 4.644531 16.199219 4.96875 C 16.386719 5.449219 16.28125 5.847656 15.878906 6.171875 C 15.875 6.164062 15.867188 6.15625 15.859375 6.148438 C 15.8125 6.183594 15.765625 6.214844 15.71875 6.25 C 15.714844 6.242188 15.707031 6.238281 15.699219 6.230469 C 15.644531 6.261719 15.582031 6.289062 15.519531 6.308594 C 15.433594 6.304688 15.34375 6.304688 15.25 6.308594 C 15.136719 6.273438 15.023438 6.238281 14.910156 6.199219 C 14.550781 5.949219 14.398438 5.617188 14.449219 5.199219 C 14.511719 5.003906 14.617188 4.832031 14.769531 4.679688 C 14.832031 4.636719 14.898438 4.59375 14.960938 4.550781 C 14.964844 4.558594 14.972656 4.5625 14.980469 4.570312 C 15.042969 4.53125 15.109375 4.5 15.179688 4.46875 C 15.21875 4.46875 15.257812 4.476562 15.300781 4.488281 C 15.320312 4.480469 15.335938 4.464844 15.351562 4.449219 Z M 15.351562 4.449219 "/>
</g>
<mask id="mask2">
  <g filter="url(#alpha)">
<rect x="0" y="0" width="20" height="20" style="fill:rgb(0%,0%,0%);fill-opacity:0.972549;stroke:none;"/>
  </g>
</mask>
<clipPath id="clip3">
  <rect x="0" y="0" width="20" height="20"/>
</clipPath>
<g id="surface11" clip-path="url(#clip3)">
<path style=" stroke:none;fill-rule:evenodd;fill:rgb(0%,57.254902%,93.333333%);fill-opacity:1;" d="M 9.171875 4.171875 C 9.226562 4.195312 9.28125 4.195312 9.339844 4.171875 C 10.28125 4.613281 11.226562 5.054688 12.171875 5.5 C 12.179688 5.511719 12.1875 5.523438 12.191406 5.539062 C 12.027344 5.917969 11.851562 6.285156 11.660156 6.648438 C 10.71875 6.207031 9.773438 5.765625 8.828125 5.328125 C 8.589844 5.050781 8.566406 4.757812 8.761719 4.449219 C 8.847656 4.347656 8.941406 4.269531 9.039062 4.210938 C 9.046875 4.214844 9.054688 4.222656 9.058594 4.230469 C 9.101562 4.214844 9.136719 4.195312 9.171875 4.171875 Z M 9.171875 4.171875 "/>
</g>
<mask id="mask3">
  <g filter="url(#alpha)">
<rect x="0" y="0" width="20" height="20" style="fill:rgb(0%,0%,0%);fill-opacity:0.960784;stroke:none;"/>
  </g>
</mask>
<clipPath id="clip4">
  <rect x="0" y="0" width="20" height="20"/>
</clipPath>
<g id="surface14" clip-path="url(#clip4)">
<path style=" stroke:none;fill-rule:evenodd;fill:rgb(0%,57.254902%,93.333333%);fill-opacity:1;" d="M 6.410156 6.429688 C 6.511719 6.4375 6.609375 6.46875 6.710938 6.519531 C 7.335938 6.816406 7.960938 7.105469 8.589844 7.390625 C 7.640625 9.4375 6.6875 11.484375 5.730469 13.53125 C 6.214844 14.238281 6.152344 14.90625 5.539062 15.53125 C 5.535156 15.523438 5.527344 15.515625 5.519531 15.511719 C 5.40625 15.628906 5.269531 15.710938 5.101562 15.75 C 5.082031 15.78125 5.0625 15.789062 5.039062 15.769531 C 5.023438 15.800781 5.003906 15.808594 4.980469 15.789062 C 4.921875 15.804688 4.863281 15.824219 4.800781 15.851562 C 4.761719 15.851562 4.722656 15.84375 4.679688 15.828125 C 4.660156 15.84375 4.640625 15.855469 4.621094 15.871094 C 4.5625 15.855469 4.507812 15.84375 4.449219 15.828125 C 3.945312 15.765625 3.570312 15.5 3.320312 15.03125 C 3.261719 14.894531 3.21875 14.753906 3.191406 14.609375 C 3.199219 14.566406 3.195312 14.519531 3.171875 14.46875 C 3.195312 13.882812 3.460938 13.4375 3.960938 13.128906 C 3.964844 13.136719 3.972656 13.144531 3.980469 13.148438 C 4.105469 13.082031 4.238281 13.027344 4.378906 12.988281 C 4.421875 12.988281 4.464844 12.996094 4.5 13.011719 C 4.535156 12.980469 4.566406 12.964844 4.601562 12.96875 C 5.363281 11.3125 6.136719 9.664062 6.929688 8.019531 C 6.628906 7.875 6.328125 7.734375 6.03125 7.589844 C 5.941406 7.507812 5.875 7.410156 5.828125 7.300781 C 5.828125 7.191406 5.828125 7.085938 5.828125 6.980469 C 5.875 6.890625 5.917969 6.800781 5.960938 6.710938 C 6.023438 6.640625 6.09375 6.578125 6.171875 6.519531 C 6.257812 6.484375 6.335938 6.457031 6.410156 6.429688 Z M 4.511719 13.488281 C 4.582031 13.496094 4.65625 13.496094 4.730469 13.488281 C 5.238281 13.601562 5.511719 13.925781 5.550781 14.460938 C 5.488281 14.917969 5.238281 15.207031 4.800781 15.328125 C 4.773438 15.316406 4.746094 15.324219 4.71875 15.351562 C 4.648438 15.34375 4.574219 15.34375 4.5 15.351562 C 4.472656 15.320312 4.441406 15.3125 4.410156 15.328125 C 3.902344 15.171875 3.664062 14.824219 3.699219 14.289062 C 3.714844 14.222656 3.738281 14.160156 3.769531 14.101562 C 3.761719 14.089844 3.753906 14.082031 3.75 14.070312 C 3.847656 13.867188 3.992188 13.707031 4.179688 13.589844 C 4.1875 13.597656 4.191406 13.601562 4.199219 13.609375 C 4.238281 13.582031 4.28125 13.558594 4.320312 13.53125 C 4.371094 13.511719 4.417969 13.511719 4.460938 13.53125 C 4.480469 13.519531 4.496094 13.503906 4.511719 13.488281 Z M 4.511719 13.488281 "/>
</g>
<mask id="mask4">
  <g filter="url(#alpha)">
<rect x="0" y="0" width="20" height="20" style="fill:rgb(0%,0%,0%);fill-opacity:0.968627;stroke:none;"/>
  </g>
</mask>
<clipPath id="clip5">
  <rect x="0" y="0" width="20" height="20"/>
</clipPath>
<g id="surface17" clip-path="url(#clip5)">
<path style=" stroke:none;fill-rule:evenodd;fill:rgb(0%,57.254902%,93.333333%);fill-opacity:1;" d="M 5.570312 7.53125 C 5.953125 7.710938 6.335938 7.894531 6.710938 8.089844 C 6.265625 9.03125 5.824219 9.96875 5.378906 10.910156 C 5.292969 11.007812 5.1875 11.078125 5.058594 11.109375 C 4.992188 11.101562 4.921875 11.101562 4.851562 11.109375 C 4.574219 11.058594 4.378906 10.902344 4.261719 10.648438 C 4.242188 10.578125 4.234375 10.503906 4.238281 10.429688 C 4.320312 10.222656 4.40625 10.015625 4.5 9.808594 C 4.863281 9.050781 5.21875 8.292969 5.570312 7.53125 Z M 5.570312 7.53125 "/>
</g>
<mask id="mask5">
  <g filter="url(#alpha)">
<rect x="0" y="0" width="20" height="20" style="fill:rgb(0%,0%,0%);fill-opacity:0.968627;stroke:none;"/>
  </g>
</mask>
<clipPath id="clip6">
  <rect x="0" y="0" width="20" height="20"/>
</clipPath>
<g id="surface20" clip-path="url(#clip6)">
<path style=" stroke:none;fill-rule:evenodd;fill:rgb(0%,57.254902%,93.333333%);fill-opacity:1;" d="M 14.949219 8.691406 C 15.160156 8.679688 15.359375 8.746094 15.550781 8.890625 C 15.617188 8.96875 15.671875 9.054688 15.71875 9.148438 C 15.746094 9.246094 15.753906 9.339844 15.75 9.429688 C 15.304688 10.378906 14.855469 11.324219 14.410156 12.269531 C 14.042969 12.101562 13.675781 11.929688 13.308594 11.761719 C 13.296875 11.746094 13.292969 11.730469 13.289062 11.710938 C 13.71875 10.785156 14.148438 9.855469 14.578125 8.929688 C 14.675781 8.804688 14.796875 8.722656 14.949219 8.691406 Z M 14.949219 8.691406 "/>
</g>
<mask id="mask6">
  <g filter="url(#alpha)">
<rect x="0" y="0" width="20" height="20" style="fill:rgb(0%,0%,0%);fill-opacity:0.964706;stroke:none;"/>
  </g>
</mask>
<clipPath id="clip7">
  <rect x="0" y="0" width="20" height="20"/>
</clipPath>
<g id="surface23" clip-path="url(#clip7)">
<path style=" stroke:none;fill-rule:evenodd;fill:rgb(0%,57.254902%,93.333333%);fill-opacity:1;" d="M 7.570312 11.449219 C 9.613281 12.386719 11.65625 13.332031 13.691406 14.289062 C 13.8125 14.210938 13.933594 14.140625 14.058594 14.070312 C 14.082031 14.089844 14.101562 14.082031 14.121094 14.050781 C 14.125 14.058594 14.132812 14.0625 14.140625 14.070312 C 14.183594 14.035156 14.230469 14.019531 14.28125 14.03125 C 14.351562 14.011719 14.425781 13.988281 14.5 13.96875 C 14.574219 13.96875 14.648438 13.96875 14.71875 13.96875 C 15.425781 14.082031 15.859375 14.496094 16.03125 15.210938 C 16.082031 15.917969 15.785156 16.433594 15.140625 16.75 C 15.117188 16.730469 15.097656 16.738281 15.078125 16.769531 C 15.058594 16.75 15.035156 16.757812 15.019531 16.789062 C 15.011719 16.785156 15.007812 16.777344 15 16.769531 C 14.921875 16.820312 14.84375 16.847656 14.761719 16.851562 C 14.648438 16.84375 14.535156 16.84375 14.421875 16.851562 C 13.664062 16.667969 13.246094 16.199219 13.171875 15.441406 C 11.511719 14.664062 9.855469 13.890625 8.199219 13.109375 C 8.058594 13.425781 7.910156 13.738281 7.761719 14.050781 C 7.753906 14.042969 7.746094 14.035156 7.738281 14.03125 C 7.714844 14.074219 7.679688 14.117188 7.640625 14.148438 C 7.609375 14.140625 7.582031 14.152344 7.558594 14.191406 C 7.554688 14.183594 7.546875 14.175781 7.539062 14.171875 C 7.445312 14.203125 7.351562 14.222656 7.261719 14.230469 C 7.085938 14.183594 6.925781 14.09375 6.78125 13.96875 C 6.722656 13.886719 6.671875 13.800781 6.628906 13.710938 C 6.628906 13.632812 6.632812 13.554688 6.640625 13.46875 C 6.949219 12.796875 7.261719 12.121094 7.570312 11.449219 Z M 14.449219 14.488281 C 14.546875 14.496094 14.640625 14.496094 14.730469 14.488281 C 15.277344 14.625 15.542969 14.96875 15.53125 15.519531 C 15.472656 15.863281 15.285156 16.109375 14.96875 16.261719 C 14.851562 16.28125 14.734375 16.3125 14.621094 16.351562 C 13.957031 16.257812 13.644531 15.882812 13.691406 15.21875 C 13.726562 15.179688 13.738281 15.136719 13.730469 15.089844 C 13.8125 14.910156 13.933594 14.761719 14.089844 14.640625 C 14.214844 14.574219 14.332031 14.523438 14.449219 14.488281 Z M 14.449219 14.488281 "/>
</g>
<mask id="mask7">
  <g filter="url(#alpha)">
<rect x="0" y="0" width="20" height="20" style="fill:rgb(0%,0%,0%);fill-opacity:0.972549;stroke:none;"/>
  </g>
</mask>
<clipPath id="clip8">
  <rect x="0" y="0" width="20" height="20"/>
</clipPath>
<g id="surface26" clip-path="url(#clip8)">
<path style=" stroke:none;fill-rule:evenodd;fill:rgb(0%,57.254902%,93.333333%);fill-opacity:1;" d="M 8.25 13.328125 C 9.199219 13.757812 10.148438 14.199219 11.089844 14.648438 C 11.265625 14.816406 11.324219 15.011719 11.269531 15.238281 C 11.203125 15.550781 11.011719 15.742188 10.699219 15.808594 C 10.652344 15.792969 10.601562 15.785156 10.550781 15.78125 C 9.617188 15.347656 8.683594 14.914062 7.75 14.480469 C 7.730469 14.460938 7.726562 14.4375 7.738281 14.410156 C 7.90625 14.046875 8.074219 13.6875 8.25 13.328125 Z M 8.25 13.328125 "/>
</g>
</defs>
<g id="surface1">
<use xlink:href="#surface5" mask="url(#mask0)"/>
<use xlink:href="#surface8" mask="url(#mask1)"/>
<use xlink:href="#surface11" mask="url(#mask2)"/>
<use xlink:href="#surface14" mask="url(#mask3)"/>
<use xlink:href="#surface17" mask="url(#mask4)"/>
<use xlink:href="#surface20" mask="url(#mask5)"/>
<use xlink:href="#surface23" mask="url(#mask6)"/>
<use xlink:href="#surface26" mask="url(#mask7)"/>
</g>
</svg>
