<?xml version="1.0" encoding="UTF-8"?>
<svg xmlns="http://www.w3.org/2000/svg" xmlns:xlink="http://www.w3.org/1999/xlink" width="20px" height="20px" viewBox="0 0 20 20" version="1.1">
<g id="surface1">
<path style=" stroke:none;fill-rule:nonzero;fill:rgb(0%,0%,0%);fill-opacity:1;" d="M 5.15625 3.191406 C 5.152344 3.195312 5.109375 3.203125 5.0625 3.210938 C 4.660156 3.269531 4.199219 3.636719 4.050781 4.015625 C 3.949219 4.269531 3.910156 4.625 3.960938 4.839844 C 3.972656 4.890625 3.988281 4.949219 3.992188 4.976562 C 4.015625 5.101562 4.15625 5.351562 4.28125 5.488281 C 4.386719 5.609375 4.417969 5.632812 4.558594 5.726562 C 4.71875 5.835938 4.769531 5.863281 4.855469 5.882812 C 4.890625 5.890625 4.953125 5.910156 4.996094 5.921875 C 5.195312 5.976562 5.414062 5.976562 5.640625 5.929688 C 5.71875 5.910156 5.75 5.902344 5.757812 5.898438 C 5.757812 5.894531 5.769531 5.890625 5.78125 5.890625 C 5.792969 5.886719 5.804688 5.882812 5.808594 5.878906 C 5.816406 5.878906 5.824219 5.875 5.835938 5.871094 C 5.878906 5.859375 6.023438 5.78125 6.105469 5.726562 C 6.15625 5.691406 6.207031 5.660156 6.210938 5.660156 C 6.21875 5.660156 6.800781 5.929688 7.507812 6.257812 C 8.210938 6.589844 9.328125 7.109375 9.988281 7.414062 C 10.648438 7.722656 11.445312 8.09375 11.757812 8.238281 C 12.070312 8.386719 12.328125 8.496094 12.339844 8.488281 C 12.347656 8.476562 12.425781 8.320312 12.511719 8.140625 C 12.59375 7.957031 12.796875 7.519531 12.964844 7.160156 C 13.25 6.546875 13.265625 6.507812 13.265625 6.394531 C 13.261719 6.207031 13.183594 6.074219 12.988281 5.921875 C 12.875 5.835938 12.636719 5.789062 12.460938 5.824219 C 12.386719 5.839844 12.277344 5.910156 12.214844 5.976562 C 12.179688 6.019531 12.0625 6.230469 11.949219 6.472656 L 11.753906 6.894531 L 11.691406 6.871094 C 11.65625 6.855469 10.9375 6.519531 10.089844 6.125 C 9.242188 5.730469 8.136719 5.214844 7.636719 4.980469 L 6.71875 4.554688 L 6.71875 4.472656 C 6.71875 4.425781 6.703125 4.316406 6.679688 4.226562 C 6.515625 3.609375 5.964844 3.1875 5.320312 3.183594 C 5.234375 3.183594 5.160156 3.1875 5.15625 3.191406 Z M 5.5 3.632812 C 5.65625 3.652344 5.871094 3.765625 5.996094 3.894531 C 6.289062 4.183594 6.367188 4.601562 6.199219 4.976562 C 6.128906 5.125 6.074219 5.199219 5.933594 5.316406 C 5.753906 5.464844 5.53125 5.539062 5.289062 5.527344 C 5.113281 5.519531 5.085938 5.511719 4.921875 5.433594 C 4.316406 5.152344 4.1875 4.347656 4.667969 3.890625 C 4.792969 3.773438 4.964844 3.667969 5.074219 3.648438 C 5.304688 3.605469 5.304688 3.605469 5.5 3.632812 Z M 5.5 3.632812 "/>
<path style=" stroke:none;fill-rule:nonzero;fill:rgb(0%,0%,0%);fill-opacity:1;" d="M 15.230469 4.015625 C 15.15625 4.027344 14.945312 4.070312 14.929688 4.078125 C 14.925781 4.082031 14.914062 4.085938 14.90625 4.089844 C 14.847656 4.101562 14.648438 4.210938 14.546875 4.285156 C 14.085938 4.636719 13.890625 5.203125 14.035156 5.769531 C 14.070312 5.90625 14.175781 6.125 14.246094 6.214844 L 14.300781 6.277344 L 14.0625 6.78125 C 13.730469 7.488281 13.441406 8.109375 13.121094 8.800781 C 12.59375 9.933594 12.292969 10.574219 11.964844 11.269531 C 11.589844 12.066406 11.4375 12.402344 11.445312 12.40625 C 11.449219 12.410156 11.890625 12.617188 12.429688 12.871094 C 13.371094 13.308594 13.414062 13.324219 13.53125 13.324219 C 13.652344 13.324219 13.671875 13.320312 13.769531 13.28125 C 13.84375 13.253906 14.046875 13.042969 14.074219 12.96875 C 14.125 12.816406 14.132812 12.777344 14.132812 12.648438 C 14.128906 12.492188 14.085938 12.386719 13.980469 12.285156 C 13.941406 12.246094 13.753906 12.144531 13.496094 12.027344 C 13.265625 11.917969 13.070312 11.820312 13.066406 11.808594 C 13.0625 11.796875 13.171875 11.542969 13.3125 11.246094 C 13.453125 10.953125 13.6875 10.449219 13.835938 10.128906 C 13.984375 9.808594 14.226562 9.285156 14.378906 8.960938 C 14.53125 8.636719 14.785156 8.097656 14.941406 7.761719 C 15.097656 7.425781 15.261719 7.066406 15.308594 6.96875 L 15.394531 6.785156 L 15.480469 6.785156 C 15.640625 6.777344 15.835938 6.722656 16.007812 6.636719 C 16.121094 6.582031 16.398438 6.371094 16.398438 6.34375 C 16.398438 6.335938 16.429688 6.296875 16.464844 6.257812 C 16.808594 5.859375 16.867188 5.234375 16.605469 4.730469 C 16.511719 4.550781 16.261719 4.296875 16.078125 4.195312 C 15.953125 4.125 15.777344 4.058594 15.640625 4.03125 C 15.566406 4.015625 15.292969 4.003906 15.230469 4.015625 Z M 15.78125 4.53125 C 16.125 4.691406 16.371094 5.09375 16.332031 5.449219 C 16.3125 5.644531 16.308594 5.664062 16.242188 5.804688 C 16.148438 6.011719 16.015625 6.148438 15.816406 6.253906 C 15.738281 6.289062 15.679688 6.316406 15.679688 6.308594 C 15.679688 6.300781 15.667969 6.304688 15.65625 6.3125 C 15.613281 6.339844 15.539062 6.347656 15.371094 6.347656 C 15.164062 6.34375 15.140625 6.339844 14.96875 6.261719 C 14.867188 6.214844 14.796875 6.160156 14.703125 6.066406 C 14.496094 5.855469 14.40625 5.613281 14.425781 5.316406 C 14.433594 5.191406 14.445312 5.136719 14.515625 4.996094 C 14.664062 4.679688 14.933594 4.480469 15.261719 4.445312 C 15.320312 4.441406 15.371094 4.433594 15.375 4.429688 C 15.398438 4.410156 15.660156 4.476562 15.78125 4.53125 Z M 15.78125 4.53125 "/>
<path style=" stroke:none;fill-rule:nonzero;fill:rgb(0%,0%,0%);fill-opacity:1;" d="M 9.140625 4.246094 C 8.988281 4.296875 8.929688 4.339844 8.820312 4.476562 C 8.628906 4.726562 8.636719 5.105469 8.839844 5.289062 C 8.875 5.316406 9.503906 5.621094 10.234375 5.960938 C 10.96875 6.304688 11.59375 6.597656 11.621094 6.609375 L 11.671875 6.636719 L 11.925781 6.085938 C 12.066406 5.78125 12.179688 5.53125 12.175781 5.53125 C 12.171875 5.527344 11.652344 5.285156 11.019531 4.988281 C 10.386719 4.695312 9.765625 4.40625 9.640625 4.347656 C 9.394531 4.230469 9.273438 4.207031 9.140625 4.246094 Z M 9.140625 4.246094 "/>
<path style=" stroke:none;fill-rule:nonzero;fill:rgb(0%,0%,0%);fill-opacity:1;" d="M 6.4375 6.492188 C 6.433594 6.492188 6.402344 6.503906 6.371094 6.507812 C 6.335938 6.511719 6.308594 6.519531 6.304688 6.519531 C 6.300781 6.523438 6.292969 6.527344 6.285156 6.527344 C 6.246094 6.539062 6.144531 6.601562 6.089844 6.652344 C 5.828125 6.898438 5.796875 7.324219 6.023438 7.539062 C 6.066406 7.578125 6.246094 7.679688 6.492188 7.792969 C 6.710938 7.894531 6.90625 7.984375 6.925781 7.996094 C 6.953125 8.015625 6.929688 8.074219 6.710938 8.542969 C 6.574219 8.835938 6.121094 9.8125 5.695312 10.71875 C 4.75 12.742188 4.625 13.003906 4.605469 13.019531 C 4.597656 13.027344 4.539062 13.039062 4.480469 13.046875 C 4.421875 13.054688 4.339844 13.066406 4.304688 13.078125 C 4.269531 13.089844 4.238281 13.09375 4.238281 13.085938 C 4.238281 13.078125 4.226562 13.085938 4.210938 13.101562 C 4.195312 13.113281 4.179688 13.121094 4.179688 13.113281 C 4.179688 13.09375 3.929688 13.222656 3.824219 13.292969 C 3.65625 13.40625 3.464844 13.628906 3.359375 13.835938 C 3.242188 14.0625 3.207031 14.4375 3.269531 14.734375 C 3.34375 15.089844 3.550781 15.382812 3.886719 15.609375 C 4.105469 15.753906 4.367188 15.820312 4.660156 15.8125 C 4.984375 15.800781 5.164062 15.738281 5.441406 15.554688 C 5.917969 15.226562 6.128906 14.578125 5.949219 13.988281 C 5.925781 13.902344 5.804688 13.675781 5.734375 13.578125 C 5.707031 13.539062 5.707031 13.535156 6.0625 12.785156 C 6.207031 12.480469 6.449219 11.964844 6.601562 11.640625 C 7.210938 10.328125 7.457031 9.804688 7.898438 8.859375 C 8.15625 8.316406 8.410156 7.769531 8.46875 7.648438 L 8.574219 7.425781 L 7.621094 6.980469 C 7.097656 6.734375 6.636719 6.527344 6.601562 6.515625 C 6.515625 6.492188 6.441406 6.484375 6.4375 6.492188 Z M 4.820312 13.488281 C 4.964844 13.515625 5.175781 13.632812 5.300781 13.757812 C 5.503906 13.957031 5.59375 14.203125 5.574219 14.5 C 5.566406 14.648438 5.554688 14.695312 5.484375 14.84375 C 5.421875 14.976562 5.375 15.039062 5.28125 15.128906 C 5.179688 15.21875 5.03125 15.3125 4.957031 15.332031 C 4.945312 15.335938 4.9375 15.335938 4.9375 15.339844 C 4.929688 15.34375 4.898438 15.351562 4.808594 15.371094 C 4.441406 15.453125 3.992188 15.25 3.800781 14.910156 C 3.6875 14.703125 3.640625 14.453125 3.683594 14.25 C 3.792969 13.71875 4.277344 13.394531 4.820312 13.488281 Z M 4.820312 13.488281 "/>
<path style=" stroke:none;fill-rule:nonzero;fill:rgb(0%,0%,0%);fill-opacity:1;" d="M 5.46875 7.855469 C 5.394531 8.007812 5.246094 8.324219 5.136719 8.558594 C 5.023438 8.796875 4.789062 9.296875 4.613281 9.671875 C 4.296875 10.34375 4.292969 10.351562 4.292969 10.488281 C 4.292969 10.59375 4.304688 10.648438 4.335938 10.710938 C 4.527344 11.082031 5.046875 11.195312 5.332031 10.925781 C 5.367188 10.890625 5.441406 10.769531 5.5 10.636719 C 5.558594 10.511719 5.714844 10.179688 5.847656 9.898438 C 5.976562 9.621094 6.222656 9.097656 6.386719 8.738281 L 6.691406 8.089844 L 6.179688 7.851562 C 5.898438 7.71875 5.652344 7.605469 5.632812 7.597656 C 5.605469 7.578125 5.582031 7.613281 5.46875 7.855469 Z M 5.46875 7.855469 "/>
<path style=" stroke:none;fill-rule:nonzero;fill:rgb(0%,0%,0%);fill-opacity:1;" d="M 14.941406 8.761719 C 14.824219 8.78125 14.761719 8.816406 14.683594 8.894531 C 14.605469 8.972656 14.554688 9.074219 14.089844 10.078125 C 13.945312 10.394531 13.710938 10.890625 13.570312 11.1875 C 13.433594 11.484375 13.324219 11.734375 13.335938 11.742188 C 13.34375 11.75 13.589844 11.867188 13.878906 12.003906 L 14.410156 12.253906 L 14.585938 11.878906 C 14.679688 11.675781 14.933594 11.132812 15.148438 10.671875 C 15.363281 10.207031 15.578125 9.746094 15.628906 9.648438 C 15.710938 9.480469 15.71875 9.453125 15.714844 9.328125 C 15.707031 9.121094 15.621094 8.976562 15.414062 8.847656 C 15.296875 8.769531 15.09375 8.730469 14.941406 8.761719 Z M 14.941406 8.761719 "/>
<path style=" stroke:none;fill-rule:nonzero;fill:rgb(0%,0%,0%);fill-opacity:1;" d="M 7.414062 11.894531 C 6.65625 13.515625 6.699219 13.421875 6.6875 13.574219 C 6.675781 13.695312 6.683594 13.730469 6.714844 13.804688 C 6.789062 13.949219 6.996094 14.140625 7.089844 14.140625 C 7.105469 14.140625 7.140625 14.148438 7.164062 14.160156 C 7.242188 14.203125 7.449219 14.1875 7.5625 14.132812 C 7.75 14.042969 7.761719 14.03125 8 13.503906 C 8.101562 13.28125 8.1875 13.101562 8.191406 13.101562 C 8.199219 13.101562 8.984375 13.464844 12.148438 14.9375 L 13.207031 15.433594 L 13.230469 15.601562 C 13.265625 15.8125 13.316406 15.960938 13.417969 16.132812 C 13.621094 16.480469 13.992188 16.730469 14.390625 16.792969 C 14.703125 16.84375 15.074219 16.769531 15.328125 16.613281 C 15.488281 16.519531 15.722656 16.292969 15.773438 16.191406 C 15.792969 16.15625 15.820312 16.109375 15.84375 16.085938 C 15.882812 16.03125 15.941406 15.855469 15.992188 15.628906 C 15.996094 15.609375 16.003906 15.507812 16.003906 15.410156 C 16.003906 14.816406 15.628906 14.296875 15.058594 14.101562 C 14.9375 14.058594 14.777344 14.035156 14.601562 14.035156 C 14.320312 14.035156 14.089844 14.105469 13.808594 14.285156 L 13.726562 14.335938 L 12.4375 13.734375 C 9.820312 12.519531 8.914062 12.097656 8.714844 12.003906 C 8.601562 11.949219 8.3125 11.8125 8.070312 11.699219 C 7.828125 11.589844 7.625 11.492188 7.621094 11.488281 C 7.613281 11.484375 7.523438 11.667969 7.414062 11.894531 Z M 14.839844 14.484375 C 14.957031 14.507812 15.171875 14.628906 15.277344 14.738281 C 15.582031 15.035156 15.652344 15.472656 15.464844 15.851562 C 15.386719 16.007812 15.195312 16.207031 15.070312 16.269531 C 15.027344 16.289062 14.984375 16.304688 14.980469 16.304688 C 14.972656 16.304688 14.957031 16.3125 14.945312 16.324219 C 14.933594 16.335938 14.921875 16.339844 14.921875 16.335938 C 14.921875 16.328125 14.890625 16.335938 14.851562 16.351562 C 14.804688 16.371094 14.722656 16.378906 14.585938 16.375 C 14.398438 16.371094 14.378906 16.363281 14.214844 16.285156 C 13.835938 16.105469 13.640625 15.765625 13.664062 15.339844 C 13.675781 15.195312 13.6875 15.144531 13.753906 15.011719 C 13.878906 14.746094 14.148438 14.527344 14.390625 14.488281 C 14.433594 14.480469 14.472656 14.472656 14.476562 14.46875 C 14.484375 14.460938 14.777344 14.472656 14.839844 14.484375 Z M 14.839844 14.484375 "/>
<path style=" stroke:none;fill-rule:nonzero;fill:rgb(0%,0%,0%);fill-opacity:1;" d="M 8.199219 13.519531 C 8.160156 13.601562 8.046875 13.847656 7.949219 14.058594 C 7.847656 14.273438 7.769531 14.457031 7.777344 14.464844 C 7.785156 14.46875 8.074219 14.609375 8.421875 14.769531 C 10.734375 15.851562 10.527344 15.761719 10.679688 15.761719 C 10.742188 15.761719 10.820312 15.75 10.835938 15.738281 C 10.839844 15.734375 10.847656 15.734375 10.855469 15.730469 C 10.945312 15.710938 11.097656 15.578125 11.171875 15.445312 C 11.230469 15.347656 11.238281 15.308594 11.253906 15.144531 C 11.269531 14.964844 11.230469 14.855469 11.121094 14.738281 C 11.035156 14.648438 10.941406 14.601562 9.710938 14.03125 C 8.984375 13.691406 8.363281 13.402344 8.328125 13.390625 L 8.269531 13.363281 Z M 8.199219 13.519531 "/>
</g>
</svg>
